<?xml version="1.0" encoding="UTF-8"?>
<svg version="1.1" xmlns="http://www.w3.org/2000/svg" width="500" height="500">
<path d="M0 0 C165 0 330 0 500 0 C500 165 500 330 500 500 C335 500 170 500 0 500 C0 335 0 170 0 0 Z " fill="#FEFEFE" transform="translate(0,0)"/>
<path d="M0 0 C3 0.5625 3 0.5625 5.04174805 2.64135742 C7.24377248 5.92613767 8.33163264 9.08854887 9.33203125 12.86328125 C9.52928299 13.56785461 9.72653473 14.27242798 9.92976379 14.99835205 C10.56825243 17.28770009 11.19019844 19.5812049 11.8125 21.875 C12.25501652 23.46968964 12.69887528 25.0640074 13.14404297 26.65795898 C14.02973266 29.83250765 14.91036732 33.00838114 15.78662109 36.18554688 C17.35120456 41.84610259 18.97651042 47.48835383 20.625 53.125 C20.89932861 54.06649902 21.17365723 55.00799805 21.45629883 55.97802734 C23.56490107 63.17484568 25.77630027 70.33805071 28 77.5 C30.78096304 86.46870741 33.45203743 95.46220374 36 104.5 C36.45439453 106.09992798 36.45439453 106.09992798 36.91796875 107.73217773 C37.19253906 108.71645752 37.46710938 109.7007373 37.75 110.71484375 C38.11351562 112.0140979 38.11351562 112.0140979 38.484375 113.33959961 C39 115.5625 39 115.5625 39 118.5625 C39.66 118.5625 40.32 118.5625 41 118.5625 C41.21398437 117.41910156 41.42796875 116.27570313 41.6484375 115.09765625 C43.33084791 107.54448799 46.07531136 100.29373059 48.625 93 C49.71564738 89.85749905 50.80304633 86.71387658 51.890625 83.5703125 C52.15930389 82.79526871 52.42798279 82.02022491 52.70480347 81.22169495 C54.9881578 74.6257022 57.19322685 68.00525995 59.375 61.375 C61.73035666 54.23470787 64.21828924 47.17392892 66.92114258 40.15820312 C68.65576909 35.61187498 70.14770663 31.02724846 71.5625 26.375 C77.92572615 5.53205781 77.92572615 5.53205781 82 2.5625 C85.5 2.5625 85.5 2.5625 89 3.5625 C92.82159346 8.08956387 93.25417744 13.97866333 94.234375 19.6328125 C94.53271492 21.27898056 94.53271492 21.27898056 94.83708191 22.95840454 C95.48350299 26.53325067 96.11655472 30.11033418 96.75 33.6875 C97.637275 38.61282491 98.53158568 43.53686498 99.42578125 48.4609375 C99.64589371 49.67825562 99.86600616 50.89557373 100.0927887 52.14978027 C101.92124277 62.22931685 103.88744448 72.27600474 105.9375 82.3125 C108.18773732 93.3615286 110.31053809 104.4120514 112 115.5625 C115.35258361 109.0973561 118.17915588 102.48745615 120.9375 95.75 C123.80354022 88.76430383 126.76040215 81.84651713 129.9128418 74.98510742 C131.21868612 72.07518306 132.35056907 69.12301828 133.4375 66.125 C135.06991735 61.79065049 136.87913373 57.6794757 139 53.5625 C142.4821433 46.78475679 145.09174306 39.75186992 147.71875 32.60791016 C148.46661011 30.58781145 149.23217422 28.57508191 150 26.5625 C150.45375 25.345625 150.9075 24.12875 151.375 22.875 C153.1366682 19.28390713 154.94140263 17.12085948 158 14.5625 C161.125 14 161.125 14 164 14.5625 C167.24989454 17.8128892 167.62830304 20.99915293 168.2109375 25.45703125 C168.30400177 26.14356781 168.39706604 26.83010437 168.49295044 27.53744507 C168.79865168 29.81525071 169.08690981 32.09490536 169.375 34.375 C169.58821601 35.99337442 169.80242798 37.6116179 170.01757812 39.22973633 C170.58078558 43.48983314 171.12886244 47.75174064 171.67321777 52.01428223 C172.09174958 55.27795476 172.51891399 58.54046504 172.94648743 61.80296326 C174.33263282 72.38510278 175.67463119 82.97259404 177 93.5625 C177.11490784 94.47940613 177.22981567 95.39631226 177.34820557 96.34100342 C178.06176024 102.03932553 178.77044282 107.73822586 179.47314453 113.43789673 C179.6976578 115.25699933 179.92306695 117.07599161 180.14941406 118.89486694 C180.46335049 121.42173304 180.77326536 123.94906007 181.08203125 126.4765625 C181.22225456 127.5972538 181.22225456 127.5972538 181.36531067 128.74058533 C181.80402337 132.36915799 182.10515685 135.90662159 182 139.5625 C185.22536099 137.41225934 185.70541005 136.52418563 187.25 133.125 C189.51945037 128.40427387 192.12533494 124.07249207 194.9765625 119.68359375 C197.37780749 115.97974289 199.72346481 112.2433299 202.0625 108.5 C202.70481567 107.47592041 202.70481567 107.47592041 203.36010742 106.43115234 C206.29271349 101.74191693 209.11988571 97.00177177 211.84375 92.1875 C212.2253125 91.65125 212.606875 91.115 213 90.5625 C213.66 90.5625 214.32 90.5625 215 90.5625 C215.11448486 89.98935059 215.22896973 89.41620117 215.34692383 88.82568359 C216.06431987 86.3396046 217.07666251 84.54264261 218.44921875 82.3515625 C218.96097656 81.52938232 219.47273438 80.70720215 220 79.86010742 C220.556875 78.97814697 221.11375 78.09618652 221.6875 77.1875 C222.26113281 76.27009033 222.83476562 75.35268066 223.42578125 74.4074707 C229.39303978 64.88423627 235.41649562 55.39461055 241.49829102 45.9440918 C242.48990542 44.3714697 243.45476346 42.78161644 244.39038086 41.17504883 C244.81714111 40.44697021 245.24390137 39.7188916 245.68359375 38.96875 C246.04767334 38.32615234 246.41175293 37.68355469 246.78686523 37.02148438 C248 35.5625 248 35.5625 251.5625 34.875 C255.09950196 35.58240039 256.53441146 35.99761621 259 38.5625 C259.2355957 41.39515686 259.2355957 41.39515686 258.86328125 44.82055664 C258.73518066 46.07772491 258.60708008 47.33489319 258.47509766 48.63015747 C258.31831543 49.92783051 258.1615332 51.22550354 258 52.5625 C257.86513184 53.75938446 257.73026367 54.95626892 257.59130859 56.18942261 C257.15167456 59.94155587 256.67420009 63.68728613 256.1875 67.43359375 C256.00935362 68.82786388 255.8316293 70.222188 255.65429688 71.61656189 C255.28717926 74.50098208 254.91835621 77.38517638 254.54833984 80.26922607 C253.76575224 86.38130511 253.00673008 92.49630425 252.24697876 98.61125565 C251.83250792 101.94476147 251.41617158 105.27803428 251 108.61132812 C250.49962087 112.62015139 249.99942599 116.62899732 249.5 120.63793945 C247.19919073 139.10471432 244.85981075 157.56599856 242.46026611 176.02023315 C242.02897188 179.33952875 241.60005929 182.6591248 241.17138672 185.97875977 C240.56104674 190.69035426 239.93596959 195.3997689 239.29956055 200.10791016 C239.05156175 201.96045946 238.80864778 203.81369456 238.57006836 205.66748047 C238.2135862 208.43110192 237.84102792 211.19212573 237.46484375 213.953125 C237.36163315 214.78096497 237.25842255 215.60880493 237.15208435 216.46173096 C236.56198993 220.65690876 235.98780837 222.67166944 233 225.5625 C232.71125 226.573125 232.4225 227.58375 232.125 228.625 C231 231.5625 231 231.5625 228.98388672 232.66992188 C225.06079163 233.84344795 221.19416252 234.32206084 217.1328125 234.78125 C216.26886368 234.88411316 215.40491486 234.98697632 214.51478577 235.09295654 C211.71898748 235.42340821 208.92210514 235.74331567 206.125 236.0625 C204.21131749 236.28590243 202.29766191 236.50953561 200.3840332 236.73339844 C187.94536121 238.17529791 175.5059349 239.47347244 163.01245117 240.34472656 C160.96366648 240.52871884 160.96366648 240.52871884 158.84619141 241.04223633 C154.72427365 241.79569376 150.59690374 241.99411709 146.41796875 242.24609375 C145.45450027 242.30652359 144.4910318 242.36695343 143.49836731 242.42921448 C141.43643234 242.55773113 139.37439095 242.68454981 137.31225586 242.80981445 C134.31921419 242.99198333 131.3265937 243.18002034 128.33398438 243.36914062 C122.86444015 243.71069678 117.39376675 244.0289603 111.92233276 244.33868408 C109.15785228 244.4964307 106.39371688 244.65751037 103.62966919 244.82244873 C79.08403583 246.27775975 54.61546055 246.88553666 30.02758789 246.82324219 C25.41180234 246.81165228 20.79624463 246.81858097 16.18046665 246.83038712 C12.53318099 246.83766887 8.8859482 246.83529233 5.23866081 246.83013153 C3.53619291 246.82882257 1.83371979 246.83034268 0.13125801 246.83509064 C-28.86595698 246.89851886 -28.86595698 246.89851886 -41.875 241.9375 C-42.57061035 241.68315186 -43.2662207 241.42880371 -43.98291016 241.16674805 C-50.40237712 238.67573351 -55.80964287 235.08717936 -61 230.5625 C-61.51675293 230.12341309 -62.03350586 229.68432617 -62.56591797 229.23193359 C-68.28907422 222.56953277 -67.23808463 206.93725711 -68.25 198.25 C-68.46607565 196.41511218 -68.68222352 194.58023286 -68.8984375 192.74536133 C-71.59315644 169.77684088 -74.11159112 146.78808275 -76.64324951 123.80114746 C-77.51205804 115.91394164 -78.38295846 108.02696891 -79.25653076 100.14028931 C-79.45930747 98.30763362 -79.66166444 96.47493145 -79.86358643 94.6421814 C-81.01223317 84.21749118 -82.20197961 73.79916968 -83.45703125 63.38671875 C-83.69659999 61.38501776 -83.93610285 59.38330888 -84.17553711 57.3815918 C-84.62976837 53.58634158 -85.09428473 49.79254202 -85.56469727 45.99926758 C-85.77006646 44.29122313 -85.97508284 42.5831362 -86.1796875 40.875 C-86.27832596 40.1032695 -86.37696442 39.331539 -86.47859192 38.53642273 C-86.93322699 34.66644054 -87.20188236 31.30438935 -86 27.5625 C-84 25.5625 -84 25.5625 -81.1875 25.1875 C-77.15077225 25.66240915 -75.93765462 26.77217457 -73 29.5625 C-71.36268801 31.94013371 -70.02775621 34.44578969 -68.6875 37 C-67.90059014 38.4490877 -67.11149606 39.89699125 -66.3203125 41.34375 C-65.93004883 42.06046875 -65.53978516 42.7771875 -65.13769531 43.515625 C-63.53440632 46.40016898 -61.80883889 49.20020162 -60.0625 52 C-57.05128362 56.83457621 -54.12647445 61.70974929 -51.25 66.625 C-47.60124423 72.85705794 -43.91105257 79.06234071 -40.1875 85.25 C-35.22873686 93.4903807 -30.32418428 101.76165425 -25.4519043 110.0534668 C-24.94312744 110.9175415 -24.43435059 111.78161621 -23.91015625 112.671875 C-23.46808838 113.42436523 -23.02602051 114.17685547 -22.57055664 114.95214844 C-20.42552393 118.51731084 -18.21338355 122.0394815 -16 125.5625 C-15.94180084 124.75135742 -15.88360168 123.94021484 -15.82363892 123.10449219 C-15.26641661 115.34174365 -14.70784303 107.57909394 -14.1478672 99.81654358 C-13.86024042 95.8287553 -13.57308028 91.84093473 -13.28710938 87.85302734 C-12.95588796 83.23524562 -12.623226 78.61756977 -12.2890625 74 C-12.23429119 73.2430056 -12.17951988 72.4860112 -12.12308884 71.70607758 C-11.36449733 61.25122851 -10.53840253 50.80439343 -9.64099121 40.3604126 C-9.18440401 34.98688803 -8.80169507 29.61932115 -8.5078125 24.234375 C-8.44207031 23.06648438 -8.37632812 21.89859375 -8.30859375 20.6953125 C-8.18199159 18.36260041 -8.06817874 16.02917104 -7.96484375 13.6953125 C-7.89652344 12.55320313 -7.82820313 11.41109375 -7.7578125 10.234375 C-7.68264404 8.73535645 -7.68264404 8.73535645 -7.60595703 7.20605469 C-6.59434411 2.79278124 -4.39306934 0.8237005 0 0 Z " fill="#0C2A27" transform="translate(164,127.4375)"/>
<path d="M0 0 C4.72211726 7.08317589 5.2003191 16.94330457 6.41015625 25.2421875 C8.20371146 36.66867829 10.55163248 48.01067142 13 59.3125 C14.79219488 67.60920975 16.19954074 75.95118637 17.5637207 84.32763672 C18.61072894 97.48043527 18.61072894 97.48043527 23 109 C28.11303505 109.23831884 28.11303505 109.23831884 33 108 C34.00495094 105.9892993 34.00495094 105.9892993 34.5 103.5 C35.50882077 99.30542942 37.00614682 95.59943096 38.78710938 91.68994141 C40.19374151 88.57032125 41.5361426 85.42664167 42.875 82.27734375 C43.38546875 81.07916016 43.8959375 79.88097656 44.421875 78.64648438 C45.21272944 76.78881048 46.00282874 74.9308289 46.79101562 73.07202148 C51.76762308 61.34210832 51.76762308 61.34210832 54.22265625 56.5234375 C55.85601102 53.28544629 57.18861788 50.08843506 58.4375 46.6875 C59.99433981 42.55021011 61.63389653 38.50715009 63.5 34.5 C65.85679217 29.43808474 67.85110652 24.27805117 69.7890625 19.04296875 C71.02851469 15.92834534 72.46069116 12.97629369 74 10 C76.05004253 13.0750638 76.3663502 14.35291896 76.7902832 17.90991211 C76.91432022 18.91592972 77.03835724 19.92194733 77.16615295 20.95845032 C77.29308029 22.05368515 77.42000763 23.14891998 77.55078125 24.27734375 C77.68983383 25.41918625 77.82888641 26.56102875 77.97215271 27.73747253 C78.27051096 30.19283785 78.56535191 32.64863259 78.85705566 35.10479736 C79.61888932 41.51585934 80.40646407 47.92376475 81.19140625 54.33203125 C81.34620453 55.60121399 81.50100281 56.87039673 81.66049194 58.17803955 C83.42510118 72.58992987 85.43779707 86.96266393 87.48876953 101.3359375 C87.98436032 104.88790818 88.44999721 108.44228683 88.90234375 112 C89.03737305 113.04913574 89.17240234 114.09827148 89.31152344 115.17919922 C89.55225697 117.06536208 89.78658683 118.95236012 90.01269531 120.84033203 C90.45385169 125.38471011 90.45385169 125.38471011 93 129 C97.96758714 128.87203128 97.96758714 128.87203128 101.90625 126.12109375 C102.4321875 125.23550781 102.958125 124.34992188 103.5 123.4375 C104.15871094 122.365 104.81742187 121.2925 105.49609375 120.1875 C105.87620605 119.548125 106.25631836 118.90875 106.64794922 118.25 C108.89981832 114.50257752 111.24381167 110.81295446 113.5703125 107.11157227 C115.49386697 104.04685024 117.40650571 100.97558839 119.31640625 97.90234375 C122.29566549 93.11659184 125.30925527 88.35391861 128.34106445 83.60131836 C130.84262524 79.67870906 133.32827446 75.7461031 135.8125 71.8125 C136.32385498 71.00296875 136.83520996 70.1934375 137.36206055 69.359375 C141.10567857 63.42806388 144.8276747 57.48353035 148.53979492 51.5324707 C151.99313152 46.00019291 155.48513386 40.49343317 159 35 C160.14653297 38.49016543 159.89372871 41.24492824 159.41430664 44.86425781 C159.18222252 46.65948631 159.18222252 46.65948631 158.94544983 48.49098206 C158.68047951 50.45224281 158.68047951 50.45224281 158.41015625 52.453125 C158.22797662 53.84304342 158.04651068 55.23305555 157.8657074 56.62315369 C157.47635233 59.6063842 157.082505 62.58897322 156.68505859 65.57113647 C156.05911189 70.2682796 155.44242593 74.96660437 154.828125 79.6652832 C154.67336102 80.84900182 154.67336102 80.84900182 154.5154705 82.05663395 C154.30520386 83.66513294 154.09497801 85.27363726 153.88479233 86.88214684 C153.56418734 89.33337118 153.24261871 91.78446773 152.92092896 94.23554993 C151.45619939 105.41106009 150.03747037 116.59170074 148.65234375 127.77734375 C148.56013109 128.52118694 148.46791843 129.26503014 148.37291145 130.03141403 C147.57228378 136.49132959 146.77387983 142.95151579 145.98171997 149.41247559 C145.50122103 153.33134462 145.01625188 157.24965438 144.53125 161.16796875 C144.38997177 162.33029526 144.24869354 163.49262177 144.10313416 164.69017029 C143.90609642 166.27669151 143.90609642 166.27669151 143.70507812 167.89526367 C143.5359491 169.2739991 143.5359491 169.2739991 143.36340332 170.68058777 C143 173 143 173 142 176 C137.68172506 175.61615334 134.06623849 174.73050372 130.015625 173.171875 C123.94942897 170.92569532 117.81122981 169.16106071 111.5625 167.5 C110.42433838 167.19739258 109.28617676 166.89478516 108.11352539 166.58300781 C81.35953009 159.57971747 54.89318383 156.46939155 27.22485352 156.60888672 C23.43664655 156.62500363 19.64950366 156.60891052 15.86132812 156.58984375 C1.18635171 156.57746176 -13.05376646 157.46865272 -27.56790161 159.63861084 C-30.73648122 160.10943485 -33.91257524 160.51440336 -37.08984375 160.921875 C-68.21922402 165.23527771 -99.16787634 172.53301911 -129.56323242 180.45800781 C-132 181 -132 181 -135 181 C-140.83497664 131.08178371 -140.83497664 131.08178371 -143.1875 108.375 C-144.91739906 91.69159628 -146.79738001 75.03001901 -148.7930603 58.37625122 C-149.16713079 55.25112026 -149.53916072 52.12574754 -149.91113281 49.00036621 C-150.18186582 46.73465138 -150.45607188 44.46937514 -150.73046875 42.20410156 C-150.8972894 40.806659 -151.06396309 39.40919888 -151.23046875 38.01171875 C-151.37895264 36.77897217 -151.52743652 35.54622559 -151.68041992 34.27612305 C-151.9526314 31.48559146 -152.06531406 28.79988428 -152 26 C-148.46902668 30.14257377 -145.77348156 34.55609073 -143.0625 39.25 C-142.40435303 40.38127319 -142.40435303 40.38127319 -141.73291016 41.53540039 C-140.48372732 43.6874924 -139.24095863 45.84315824 -138 48 C-137.41863281 49.00417969 -136.83726562 50.00835937 -136.23828125 51.04296875 C-133 56.73083811 -133 56.73083811 -133 59 C-132.34 59 -131.68 59 -131 59 C-130.60731934 59.71019287 -130.21463867 60.42038574 -129.81005859 61.15209961 C-128.00235022 64.4161208 -126.18872108 67.67681634 -124.375 70.9375 C-123.75753906 72.05447266 -123.14007813 73.17144531 -122.50390625 74.32226562 C-119.31223543 80.05047483 -116.02292283 85.61335025 -112.32226562 91.02661133 C-110.40132142 93.89348577 -108.74074841 96.85912019 -107.0625 99.875 C-106.38029102 101.07370583 -105.69667442 102.27161154 -105.01171875 103.46875 C-103.70653372 105.75235432 -102.4209143 108.04357339 -101.14453125 110.34375 C-100.56058594 111.3440625 -99.97664063 112.344375 -99.375 113.375 C-98.86710937 114.26960938 -98.35921875 115.16421875 -97.8359375 116.0859375 C-96.0858772 118.30707672 -96.0858772 118.30707672 -92.9765625 118.4140625 C-89.82155558 118.19503705 -89.82155558 118.19503705 -87 116 C-85.60323935 112.06491986 -85.7301336 107.88453551 -85.5625 103.75 C-85.22258939 96.41966172 -84.70674106 89.12211079 -84.0625 81.8125 C-83.07087259 70.50682699 -82.35355128 59.19173151 -81.69750977 47.86254883 C-81.05181284 36.96971624 -81.05181284 36.96971624 -80.4765625 32.71875 C-79.86984243 27.98434419 -79.64878285 23.26598697 -79.4375 18.5 C-79.37272461 17.12328125 -79.37272461 17.12328125 -79.30664062 15.71875 C-79.20166544 13.47927939 -79.09950752 11.23971908 -79 9 C-78.34 9 -77.68 9 -77 9 C-76.79246094 9.7321875 -76.58492188 10.464375 -76.37109375 11.21875 C-74.17247843 18.94610093 -71.93832277 26.6626952 -69.6875 34.375 C-69.3884375 35.40028809 -69.089375 36.42557617 -68.78125 37.48193359 C-67.26048603 42.69264448 -65.73547725 47.90205982 -64.203125 53.109375 C-61.34518779 62.83959562 -58.55613966 72.57746812 -55.9375 82.375 C-54.04692842 89.4227717 -51.992881 96.38870254 -49.6875 103.3125 C-49.43282959 104.07804199 -49.17815918 104.84358398 -48.91577148 105.63232422 C-47.93721344 109.08567417 -47.93721344 109.08567417 -46 112 C-43.32941149 112.14115161 -40.67567762 112.04247107 -38 112 C-37.8165654 111.44715836 -37.6331308 110.89431671 -37.44413757 110.32472229 C-35.70418199 105.09126296 -33.93680197 99.86809248 -32.14453125 94.65234375 C-31.6033739 93.07472773 -31.06227927 91.49709019 -30.52124023 89.91943359 C-30.10296463 88.70015167 -30.10296463 88.70015167 -29.67623901 87.45623779 C-24.7647737 73.13397943 -19.89618123 58.79937363 -15.13525391 44.42626953 C-12.90953914 37.70891876 -10.67865257 30.99329233 -8.44485474 24.27862549 C-7.64030032 21.85852342 -6.83757163 19.43782091 -6.03491211 17.01708984 C-5.53638826 15.51787282 -5.03777576 14.01868528 -4.5390625 12.51953125 C-4.19895393 11.49145607 -4.19895393 11.49145607 -3.85197449 10.44261169 C-2.67541089 6.91253442 -1.42470599 3.4377337 0 0 Z " fill="#FBFCFC" transform="translate(246,163)"/>
<path d="M0 0 C4.03672775 0.47490915 5.24984538 1.58467457 8.1875 4.375 C9.82481199 6.75263371 11.15974379 9.25828969 12.5 11.8125 C13.28690986 13.2615877 14.07600394 14.70949125 14.8671875 16.15625 C15.25745117 16.87296875 15.64771484 17.5896875 16.04980469 18.328125 C17.65309368 21.21266898 19.37866111 24.01270162 21.125 26.8125 C24.13621638 31.64707621 27.06102555 36.52224929 29.9375 41.4375 C33.58625577 47.66955794 37.27644743 53.87484071 41 60.0625 C45.95876314 68.3028807 50.86331572 76.57415425 55.7355957 84.8659668 C56.24437256 85.7300415 56.75314941 86.59411621 57.27734375 87.484375 C57.71941162 88.23686523 58.16147949 88.98935547 58.61694336 89.76464844 C60.76161698 93.32921402 62.98269468 96.84731149 65.1875 100.375 C66.8375 77.605 68.4875 54.835 70.1875 31.375 C70.5175 31.375 70.8475 31.375 71.1875 31.375 C71.6825 33.85 71.6825 33.85 72.1875 36.375 C73.321875 36.66375 74.45625 36.9525 75.625 37.25 C76.800625 37.62125 77.97625 37.9925 79.1875 38.375 C79.5175 39.035 79.8475 39.695 80.1875 40.375 C82.21915952 36.04079301 82.70810632 32.08903788 83.1875 27.375 C83.5175 27.375 83.8475 27.375 84.1875 27.375 C84.292173 35.02111361 84.03759317 42.51519055 83.3125 50.125 C82.2838796 61.5759245 81.54993244 73.03416498 80.88525391 84.51074219 C80.23889187 95.40810799 80.23889187 95.40810799 79.65625 99.70703125 C78.982244 104.98112817 78.83938618 110.26100627 78.66992188 115.57226562 C78.33028796 123.57609117 78.33028796 123.57609117 76.1875 127.375 C72.7057529 129.69616474 71.28353795 129.90811834 67.1875 129.375 C65.28125 127.57421875 65.28125 127.57421875 63.6875 125.0625 C63.09839844 124.1446875 62.50929688 123.226875 61.90234375 122.28125 C59.75868687 118.64826431 57.73053653 114.96836782 55.75390625 111.2421875 C54.15859275 108.32208748 52.45028435 105.50945201 50.6875 102.6875 C46.58303574 96.08187782 42.62380597 89.39454999 38.6875 82.6875 C38.05134766 81.61089111 37.41519531 80.53428223 36.75976562 79.42504883 C36.16873047 78.41466553 35.57769531 77.40428223 34.96875 76.36328125 C34.43314453 75.45102783 33.89753906 74.53877441 33.34570312 73.59887695 C32.1875 71.375 32.1875 71.375 32.1875 69.375 C31.5275 69.375 30.8675 69.375 30.1875 69.375 C29.85540527 68.75568604 29.52331055 68.13637207 29.18115234 67.49829102 C27.64621857 64.64218549 26.10440736 61.78984636 24.5625 58.9375 C24.04042969 57.96361328 23.51835938 56.98972656 22.98046875 55.98632812 C19.67779777 49.89065762 16.15093632 44.06410475 12.1875 38.375 C12.57312266 42.55232125 12.96402034 46.72910884 13.359375 50.90551758 C13.49258772 52.32010214 13.62447011 53.73481275 13.75488281 55.1496582 C14.50162483 63.24032075 15.42512738 71.25866123 16.71875 79.28393555 C17.50701176 84.48194706 17.99298468 89.70585022 18.5 94.9375 C19.78610424 107.7840053 21.21786711 120.61083129 22.6875 133.4375 C25.79255242 160.61974298 25.79255242 160.61974298 27 171.625 C27.12375 172.72336182 27.2475 173.82172363 27.375 174.95336914 C27.97279126 180.46667489 28.31353751 185.82934974 28.1875 191.375 C29.34636719 191.0346875 30.50523438 190.694375 31.69921875 190.34375 C49.25733648 185.31503728 67.07382913 181.57290184 84.94238281 177.8449707 C87.06917908 177.39976813 89.19492786 176.94993461 91.3203125 176.49804688 C117.32015953 170.98805925 143.64297345 166.26989065 170.2890625 166.171875 C171.52377289 166.16617493 172.75848328 166.16047485 174.03060913 166.15460205 C176.63758502 166.14520029 179.24457253 166.13863739 181.8515625 166.13476562 C185.7528284 166.12514712 189.65354676 166.09411218 193.5546875 166.0625 C214.77245919 165.97155406 235.41530429 167.63288721 256.125 172.375 C257.26388672 172.6225 258.40277344 172.87 259.57617188 173.125 C266.20984102 174.59320112 272.71403405 176.31197709 279.1875 178.375 C278.56875 178.66375 277.95 178.9525 277.3125 179.25 C275.05424235 180.31220042 275.05424235 180.31220042 273.1875 182.375 C273.1875 183.035 273.1875 183.695 273.1875 184.375 C272.5275 185.035 271.8675 185.695 271.1875 186.375 C271.6825 186.82875 272.1775 187.2825 272.6875 187.75 C274.1875 189.375 274.1875 189.375 274.1875 191.375 C274.91195313 191.49617187 275.63640625 191.61734375 276.3828125 191.7421875 C281.47247573 192.62439579 286.33633346 193.53942347 291.1875 195.375 C291.1875 196.035 291.1875 196.695 291.1875 197.375 C272.7930515 199.96344036 254.37917506 201.48352717 235.86401367 202.86761475 C230.44276296 203.27427932 225.02600307 203.72025288 219.61010742 204.19335938 C210.21029221 205.01365916 200.80372082 205.70399729 191.38763428 206.30831909 C189.496747 206.42968567 187.60603276 206.55373968 185.71533203 206.67797852 C161.44858377 208.18652065 137.14828356 208.59151825 112.8425293 208.92724609 C98.60097722 209.12807787 84.39964871 209.40177549 70.1875 210.375 C70.1875 211.035 70.1875 211.695 70.1875 212.375 C70.8475 212.045 71.5075 211.715 72.1875 211.375 C74.73907655 211.3033265 77.26222971 211.28191558 79.8125 211.3125 C80.87210938 211.31926758 80.87210938 211.31926758 81.953125 211.32617188 C83.69795275 211.33796125 85.442737 211.35589676 87.1875 211.375 C86.66481534 214.13776177 86.07880413 216.7010876 85.1875 219.375 C83.5375 219.375 81.8875 219.375 80.1875 219.375 C80.1875 220.035 80.1875 220.695 80.1875 221.375 C58.56368829 221.94156275 37.19301185 220.19950754 20.1875 205.375 C19.67074707 204.93591309 19.15399414 204.49682617 18.62158203 204.04443359 C12.89842578 197.38203277 13.94941537 181.74975711 12.9375 173.0625 C12.72142435 171.22761218 12.50527648 169.39273286 12.2890625 167.55786133 C9.59434356 144.58934088 7.07590888 121.60058275 4.54425049 98.61364746 C3.67544196 90.72644164 2.80454154 82.83946891 1.93096924 74.95278931 C1.72819253 73.12013362 1.52583556 71.28743145 1.32391357 69.4546814 C0.17526683 59.02999118 -1.01447961 48.61166968 -2.26953125 38.19921875 C-2.50909999 36.19751776 -2.74860285 34.19580888 -2.98803711 32.1940918 C-3.44226837 28.39884158 -3.90678473 24.60504202 -4.37719727 20.81176758 C-4.58256646 19.10372313 -4.78758284 17.3956362 -4.9921875 15.6875 C-5.14014519 14.52990425 -5.14014519 14.52990425 -5.29109192 13.34892273 C-5.74572699 9.47894054 -6.01438236 6.11688935 -4.8125 2.375 C-2.8125 0.375 -2.8125 0.375 0 0 Z " fill="#0D2B28" transform="translate(82.8125,152.625)"/>
<path d="M0 0 C1.24045074 0.00087616 2.48090149 0.00175232 3.75894165 0.00265503 C21.68291372 0.04443922 38.94746144 0.45565987 56.5 4.375 C57.70527344 4.63764648 58.91054688 4.90029297 60.15234375 5.17089844 C74.42198447 8.33267416 88.55464367 11.9956334 102.5 16.375 C102.5 17.035 102.5 17.695 102.5 18.375 C84.1055515 20.96344036 65.69167506 22.48352717 47.17651367 23.86761475 C41.75526296 24.27427932 36.33850307 24.72025288 30.92260742 25.19335938 C21.52279221 26.01365916 12.11622082 26.70399729 2.70013428 27.30831909 C0.809247 27.42968567 -1.08146724 27.55373968 -2.97216797 27.67797852 C-7.14705342 27.93751022 -11.3223149 28.16600758 -15.5 28.375 C-16.36692474 28.4188382 -17.23384949 28.46267639 -18.12704468 28.50784302 C-39.16056931 29.52671859 -60.20178524 29.62791303 -81.25561523 29.67016602 C-85.2300513 29.67910139 -89.20414634 29.70020183 -93.1784668 29.73168945 C-98.06612519 29.77041083 -102.95348154 29.78895372 -107.84128761 29.79344749 C-109.67300266 29.79825296 -111.50471505 29.80968886 -113.33633995 29.82848549 C-124.85189444 29.93963292 -135.55418471 29.22939422 -146.5 25.375 C-147.16 24.715 -147.82 24.055 -148.5 23.375 C-118.69302722 10.24282961 -79.64488221 6.15234 -47.5 2.375 C-46.83373596 2.29133179 -46.16747192 2.20766357 -45.48101807 2.12145996 C-30.32849879 0.24341307 -15.2559389 -0.02634877 0 0 Z " fill="#F9FBFB" transform="translate(271.5,331.625)"/>
<path d="M0 0 C0.66 0.66 1.32 1.32 2 2 C3.65 1.34 5.3 0.68 7 0 C11.84076433 5.99909008 11.84076433 5.99909008 12.4375 9.75 C11.56619232 14.23101091 7.8743048 17.596218 5 21 C1.90327801 18.74783855 1.16007749 15.98005464 0.33984375 12.33984375 C-0.25678051 8.23205143 -0.15266886 4.13902244 0 0 Z " fill="#062623" transform="translate(90,259)"/>
<path d="M0 0 C0.66 0.33 1.32 0.66 2 1 C2 3.97 2 6.94 2 10 C1.34 10 0.68 10 0 10 C-0.22609337 12.12364481 -0.22609337 12.12364481 1.5 13.625 C2.2425 14.305625 2.2425 14.305625 3 15 C2.67 15.99 2.34 16.98 2 18 C1.67 17.34 1.34 16.68 1 16 C0.34 16.66 -0.32 17.32 -1 18 C-1.99 18.33 -2.98 18.66 -4 19 C-4.33 17.68 -4.66 16.36 -5 15 C-5.66 15 -6.32 15 -7 15 C-7.33 16.32 -7.66 17.64 -8 19 C-9.33500455 13.65998179 -8.512545 10.16044765 -7 5 C-6.67 5.66 -6.34 6.32 -6 7 C-5.01 6.34 -4.02 5.68 -3 5 C-2.01 5 -1.02 5 0 5 C0 3.35 0 1.7 0 0 Z " fill="#062522" transform="translate(107,323)"/>
<path d="M0 0 C3.5 0.125 3.5 0.125 7 1 C8.4375 3.0625 8.4375 3.0625 9 5 C8.01 5.99 7.02 6.98 6 8 C5.34 6.68 4.68 5.36 4 4 C2.0351761 4.5181036 2.0351761 4.5181036 0 6 C-1.03485877 8.31808364 -2.0355414 10.65175298 -3 13 C-3.99 13.66 -4.98 14.32 -6 15 C-5.40995795 9.09957947 -4.2882232 4.2882232 0 0 Z " fill="#142C29" transform="translate(246,130)"/>
<path d="M0 0 C3.625 -0.1875 3.625 -0.1875 7 0 C7.33 1.32 7.66 2.64 8 4 C6.68 3.67 5.36 3.34 4 3 C4 2.34 4 1.68 4 1 C3.01 1 2.02 1 1 1 C1 4.3 1 7.6 1 11 C-0.32 10.67 -1.64 10.34 -3 10 C-3.66 12.31 -4.32 14.62 -5 17 C-6.32 17 -7.64 17 -9 17 C-8.34306697 13.50446743 -6.92211344 10.9519834 -5.0625 7.9375 C-4.53785156 7.08027344 -4.01320313 6.22304687 -3.47265625 5.33984375 C-2.34168492 3.54288931 -1.17776077 1.76664116 0 0 Z " fill="#1A312E" transform="translate(412,163)"/>
<path d="M0 0 C0.99 1.32 1.98 2.64 3 4 C1.41450777 8.84455959 1.41450777 8.84455959 0 11 C-3.1875 11.9375 -3.1875 11.9375 -6 12 C-5.67 12.99 -5.34 13.98 -5 15 C-5.66 15.66 -6.32 16.32 -7 17 C-7.99 16.67 -8.98 16.34 -10 16 C-6.7 10.72 -3.4 5.44 0 0 Z " fill="#1A3431" transform="translate(395,190)"/>
<path d="M0 0 C0.66 0 1.32 0 2 0 C2.144375 1.03125 2.28875 2.0625 2.4375 3.125 C2.91660457 6.42549813 3.43875083 9.71268341 4 13 C2 13 2 13 0.375 11.5 C-0.07875 11.005 -0.5325 10.51 -1 10 C-1.33 10.66 -1.66 11.32 -2 12 C-2.66 11.67 -3.32 11.34 -4 11 C-3.52269162 9.5410574 -3.04308958 8.08286504 -2.5625 6.625 C-2.29566406 5.81289062 -2.02882813 5.00078125 -1.75390625 4.1640625 C-1 2 -1 2 0 0 Z " fill="#16322F" transform="translate(288,216)"/>
<path d="M0 0 C2.64 0.33 5.28 0.66 8 1 C6.47793991 3.62901288 5.15634036 5.84365964 3 8 C3.33 8.66 3.66 9.32 4 10 C3.34 10.66 2.68 11.32 2 12 C-0.36841312 10.42105792 -2.06745228 9.0245738 -4 7 C-3.01 6.34 -2.02 5.68 -1 5 C-0.27034634 2.43717258 -0.27034634 2.43717258 0 0 Z " fill="#04221E" transform="translate(355,331)"/>
<path d="M0 0 C0.33 0 0.66 0 1 0 C1.33 5.28 1.66 10.56 2 16 C0.02 16 -1.96 16 -4 16 C-3.66666667 14 -3.33333333 12 -3 10 C-2.855625 8.96875 -2.71125 7.9375 -2.5625 6.875 C-2.04359404 4.22281396 -1.34103019 2.32445234 0 0 Z " fill="#1B3532" transform="translate(102,264)"/>
<path d="M0 0 C0.33 0 0.66 0 1 0 C1.66 5.94 2.32 11.88 3 18 C2.34 16.68 1.68 15.36 1 14 C0.34 14 -0.32 14 -1 14 C-2.33500455 8.65998179 -1.512545 5.16044765 0 0 Z " fill="#172F2D" transform="translate(332,162)"/>
<path d="M0 0 C1.875 1.5 1.875 1.5 3 3 C-0.06890187 4.53445094 -2.70094266 3.54984289 -6 3 C-6 4.65 -6 6.3 -6 8 C-6.99 8.495 -6.99 8.495 -8 9 C-9.3260274 3.57534247 -9.3260274 3.57534247 -7.9375 1.125 C-5.14003001 -0.49933741 -3.17634515 -0.39704314 0 0 Z " fill="#273937" transform="translate(86,153)"/>
<path d="M0 0 C-1.98 0.99 -1.98 0.99 -4 2 C-3.67 2.66 -3.34 3.32 -3 4 C-4.2065625 4.556875 -4.2065625 4.556875 -5.4375 5.125 C-8.31172896 6.8109337 -8.31172896 6.8109337 -8.8125 10.1875 C-8.874375 11.115625 -8.93625 12.04375 -9 13 C-9.33 13 -9.66 13 -10 13 C-10.61741425 4.97361478 -10.61741425 4.97361478 -8.375 1.4375 C-5.40106977 -0.3625104 -3.41756151 -0.31068741 0 0 Z " fill="#273E3C" transform="translate(167,128)"/>
<path d="M0 0 C0.33 0 0.66 0 1 0 C1.05390357 2.93774463 1.0936255 5.87450232 1.125 8.8125 C1.15013672 10.06256836 1.15013672 10.06256836 1.17578125 11.33789062 C1.18222656 12.14033203 1.18867188 12.94277344 1.1953125 13.76953125 C1.20578613 14.50792236 1.21625977 15.24631348 1.22705078 16.00708008 C1 18 1 18 -1 21 C-2.30891285 16.35930898 -1.73588321 12.36772241 -1.0625 7.6875 C-0.96259766 6.94693359 -0.86269531 6.20636719 -0.75976562 5.44335938 C-0.51380065 3.62790363 -0.25789626 1.81379929 0 0 Z " fill="#324946" transform="translate(404,208)"/>
<path d="M0 0 C0.80824219 0.19464844 1.61648438 0.38929688 2.44921875 0.58984375 C3.06410156 0.74582031 3.67898438 0.90179688 4.3125 1.0625 C3.38244141 1.51689453 3.38244141 1.51689453 2.43359375 1.98046875 C0.2936269 3.01716191 0.2936269 3.01716191 -1.625 4.375 C-2.305625 4.601875 -2.98625 4.82875 -3.6875 5.0625 C-6.4375 3.6875 -6.4375 3.6875 -8.6875 2.0625 C-6.72473198 -1.86303604 -3.63700055 -0.8960726 0 0 Z " fill="#1B3733" transform="translate(357.6875,329.9375)"/>
<path d="M0 0 C3.04367695 3.80459619 4.52334445 5.69308797 6 10 C5.01 10 4.02 10 3 10 C2.34 10.99 1.68 11.98 1 13 C0.67 8.71 0.34 4.42 0 0 Z " fill="#D0DDDD" transform="translate(94,189)"/>
<path d="M0 0 C3.48331435 3.01887244 4.79157144 5.56909529 6 10 C3.5625 9.25 3.5625 9.25 1 8 C0.3125 5.9375 0.3125 5.9375 0 4 C-0.66 3.67 -1.32 3.34 -2 3 C-1.34 3 -0.68 3 0 3 C0 2.01 0 1.02 0 0 Z " fill="#263B39" transform="translate(89,156)"/>
<path d="M0 0 C3.375 0.25 3.375 0.25 7 1 C8.4375 3.0625 8.4375 3.0625 9 5 C8.01 5.99 7.02 6.98 6 8 C5.6596875 7.071875 5.6596875 7.071875 5.3125 6.125 C3.62070165 3.38589791 2.00755839 2.94975528 -1 2 C-0.67 1.34 -0.34 0.68 0 0 Z " fill="#243936" transform="translate(246,130)"/>
<path d="M0 0 C1.27617187 0.02320313 2.55234375 0.04640625 3.8671875 0.0703125 C5.78917969 0.09738281 5.78917969 0.09738281 7.75 0.125 C9.23113281 0.15980469 9.23113281 0.15980469 10.7421875 0.1953125 C10.7421875 0.5253125 10.7421875 0.8553125 10.7421875 1.1953125 C0.36861119 3.67595031 0.36861119 3.67595031 -5.2578125 2.1953125 C-3.2578125 0.1953125 -3.2578125 0.1953125 0 0 Z " fill="#243936" transform="translate(181.2578125,338.8046875)"/>
<path d="M0 0 C3.3 0.33 6.6 0.66 10 1 C7 4 7 4 4.95703125 4.29296875 C2.97135417 4.1953125 0.98567708 4.09765625 -1 4 C-0.67 2.68 -0.34 1.36 0 0 Z " fill="#062620" transform="translate(225,330)"/>
<path d="M0 0 C2.97 0 5.94 0 9 0 C9.33 0.66 9.66 1.32 10 2 C9.34 2 8.68 2 8 2 C8 2.66 8 3.32 8 4 C5.69 3.67 3.38 3.34 1 3 C0.67 2.01 0.34 1.02 0 0 Z " fill="#092320" transform="translate(139,361)"/>
<path d="M0 0 C2.40453197 2.40453197 2.4511672 3.70700317 3 7 C3.32483418 8.33542939 3.6550855 9.66961551 4 11 C3.34 11 2.68 11 2 11 C1.67 12.32 1.34 13.64 1 15 C0.67 10.05 0.34 5.1 0 0 Z " fill="#304643" transform="translate(90,269)"/>
<path d="M0 0 C1.9451 2.91765 2.45276317 4.62537285 3 8 C2.34 8 1.68 8 1 8 C0.67 8.99 0.34 9.98 0 11 C-1.89885096 9.10114904 -1.12367506 6.42752097 -1.1328125 3.91015625 C-1 2 -1 2 0 0 Z " fill="#213937" transform="translate(197,226)"/>
<path d="M0 0 C0.66 1.32 1.32 2.64 2 4 C0.64520503 6.84506944 -0.77431099 8.77431099 -3 11 C-3 10.34 -3 9.68 -3 9 C-3.66 8.67 -4.32 8.34 -5 8 C-3.35 5.36 -1.7 2.72 0 0 Z " fill="#1B332F" transform="translate(368,233)"/>
<path d="M0 0 C0.66 0.66 1.32 1.32 2 2 C1.9765625 4.6015625 1.9765625 4.6015625 1.625 7.625 C1.51414063 8.62789062 1.40328125 9.63078125 1.2890625 10.6640625 C1.19367188 11.43492187 1.09828125 12.20578125 1 13 C0.67 13 0.34 13 0 13 C-0.33 11.02 -0.66 9.04 -1 7 C-1.33 7 -1.66 7 -2 7 C-2.125 4.625 -2.125 4.625 -2 2 C-1.34 1.34 -0.68 0.68 0 0 Z " fill="#052320" transform="translate(195,222)"/>
<path d="M0 0 C0.33 0.99 0.66 1.98 1 3 C-0.258125 2.87625 -1.51625 2.7525 -2.8125 2.625 C-3.87404297 2.52058594 -3.87404297 2.52058594 -4.95703125 2.4140625 C-7 2 -7 2 -10 0 C-6.30581799 -1.231394 -3.7943739 -0.64432764 0 0 Z " fill="#2A423E" transform="translate(356,340)"/>
<path d="M0 0 C0.33 0 0.66 0 1 0 C1.33 4.95 1.66 9.9 2 15 C1.34 13.68 0.68 12.36 0 11 C-0.99 10.67 -1.98 10.34 -3 10 C-2.67 9.34 -2.34 8.68 -2 8 C-1.34 8 -0.68 8 0 8 C0 5.36 0 2.72 0 0 Z " fill="#253E3B" transform="translate(109,325)"/>
<path d="M0 0 C3.96 0.99 3.96 0.99 8 2 C8 2.66 8 3.32 8 4 C4.7 4.33 1.4 4.66 -2 5 C-0.68 4.67 0.64 4.34 2 4 C1.34 2.68 0.68 1.36 0 0 Z " fill="#C0D1D0" transform="translate(366,346)"/>
<path d="M0 0 C2 4 2 4 1.125 7.25 C0.75375 8.1575 0.3825 9.065 0 10 C-0.99 9.67 -1.98 9.34 -3 9 C-2.01 6.03 -1.02 3.06 0 0 Z " fill="#253A39" transform="translate(302,183)"/>
<path d="M0 0 C1.85776765 3.13498292 2.20140476 5.37471432 2 9 C1.01 8.67 0.02 8.34 -1 8 C-1 7.34 -1 6.68 -1 6 C-1.66 6 -2.32 6 -3 6 C-2.625 3.5625 -2.625 3.5625 -2 1 C-1.34 0.67 -0.68 0.34 0 0 Z " fill="#03211E" transform="translate(258,170)"/>
<path d="M0 0 C0.66 0.66 1.32 1.32 2 2 C1.625 5.125 1.625 5.125 1 8 C0.01 8 -0.98 8 -2 8 C-1.47731534 5.23723823 -0.89130413 2.6739124 0 0 Z " fill="#1F3935" transform="translate(283,252)"/>
<path d="M0 0 C1.0536628 3.16098841 1.21514551 4.00887259 0 7 C-2.0625 8.75 -2.0625 8.75 -4 10 C-4.66 9.67 -5.32 9.34 -6 9 C-4.02 6.03 -2.04 3.06 0 0 Z " fill="#CFDADB" transform="translate(352,282)"/>
<path d="M0 0 C0.66 0.33 1.32 0.66 2 1 C1.67 4.3 1.34 7.6 1 11 C0.67 11 0.34 11 0 11 C-0.19406478 9.35492782 -0.38007935 7.70890406 -0.5625 6.0625 C-0.66691406 5.14597656 -0.77132813 4.22945313 -0.87890625 3.28515625 C-0.91886719 2.53105469 -0.95882813 1.77695312 -1 1 C-0.67 0.67 -0.34 0.34 0 0 Z " fill="#1E3834" transform="translate(266,255)"/>
<path d="M0 0 C0.66 0.66 1.32 1.32 2 2 C1.8125 4.5 1.8125 4.5 1 7 C0.01 7.66 -0.98 8.32 -2 9 C-1.125 2.25 -1.125 2.25 0 0 Z " fill="#233B37" transform="translate(298,192)"/>
<path d="M0 0 C0.66 0.33 1.32 0.66 2 1 C1.34 2.98 0.68 4.96 0 7 C-0.66 7 -1.32 7 -2 7 C-2.33 5.35 -2.66 3.7 -3 2 C-2.01 1.34 -1.02 0.68 0 0 Z " fill="#EBF6F6" transform="translate(205,239)"/>
<path d="M0 0 C2 3 2 3 1.625 5.6875 C1.41875 6.450625 1.2125 7.21375 1 8 C-0.32 8.33 -1.64 8.66 -3 9 C-2.01 6.03 -1.02 3.06 0 0 Z " fill="#2A403E" transform="translate(283,227)"/>
<path d="M0 0 C0.33 0 0.66 0 1 0 C1.33 1.65 1.66 3.3 2 5 C2.33 5 2.66 5 3 5 C3 6.65 3 8.3 3 10 C2.01 10.33 1.02 10.66 0 11 C0 7.37 0 3.74 0 0 Z " fill="#3F5552" transform="translate(153,184)"/>
<path d="M0 0 C2.79872437 2.52788007 4.45773019 4.20411134 5 8 C4.01 7.67 3.02 7.34 2 7 C2 6.34 2 5.68 2 5 C1.34 5 0.68 5 0 5 C0 3.35 0 1.7 0 0 Z " fill="#233A38" transform="translate(99,173)"/>
<path d="M0 0 C2.0625 0.4375 2.0625 0.4375 4 1 C3.34 1 2.68 1 2 1 C2 2.65 2 4.3 2 6 C1.01 6.495 1.01 6.495 0 7 C-0.38133299 5.0085944 -0.71325582 3.00720923 -1 1 C-0.67 0.67 -0.34 0.34 0 0 Z " fill="#2D423F" transform="translate(78,155)"/>
<path d="M0 0 C-1.07401108 2.91517292 -1.77810176 4.77810176 -4 7 C-4.33 5.35 -4.66 3.7 -5 2 C-2 0 -2 0 0 0 Z " fill="#152D2C" transform="translate(353,280)"/>
<path d="M0 0 C0.99 0.66 1.98 1.32 3 2 C1.515 4.475 1.515 4.475 0 7 C-0.66 5.68 -1.32 4.36 -2 3 C-1.34 2.01 -0.68 1.02 0 0 Z " fill="#1E3836" transform="translate(374,242)"/>
<path d="M0 0 C0.66 0 1.32 0 2 0 C2.6875 1.8125 2.6875 1.8125 3 4 C1.5625 5.75 1.5625 5.75 0 7 C-1.125 2.25 -1.125 2.25 0 0 Z " fill="#072521" transform="translate(301,208)"/>
<path d="M0 0 C1.65 0.33 3.3 0.66 5 1 C0.25 5.875 0.25 5.875 -2 7 C-1.34 4.69 -0.68 2.38 0 0 Z " fill="#1A3532" transform="translate(313,157)"/>
<path d="M0 0 C1.125 1.75 1.125 1.75 2 4 C1.125 6.25 1.125 6.25 0 8 C-0.66 8 -1.32 8 -2 8 C-1.34 5.36 -0.68 2.72 0 0 Z " fill="#2E4242" transform="translate(236,152)"/>
<path d="M0 0 C0.66 1.32 1.32 2.64 2 4 C1.01 5.485 1.01 5.485 0 7 C0 6.01 0 5.02 0 4 C-0.99 4 -1.98 4 -3 4 C-2.67 3.01 -2.34 2.02 -2 1 C-1.34 0.67 -0.68 0.34 0 0 Z " fill="#052521" transform="translate(181,200)"/>
<path d="M0 0 C0.99 0 1.98 0 3 0 C2.50168276 3.68754757 1.89932357 5.60490662 -1 8 C-1.04241723 5.66705225 -1.04092937 3.33297433 -1 1 C-0.67 0.67 -0.34 0.34 0 0 Z " fill="#03201D" transform="translate(300,191)"/>
</svg>
