<?xml version="1.0" encoding="UTF-8"?>
<svg version="1.1" xmlns="http://www.w3.org/2000/svg" width="476" height="117">
<path d="M0 0 C9.96052134 10.35827926 15.06703114 22.30684305 14.97265625 36.62890625 C14.9670166 37.51892334 14.96137695 38.40894043 14.95556641 39.32592773 C14.71576867 52.2714443 9.95967453 64.51688797 0.66015625 73.81640625 C-12.89374175 85.19442764 -26.9081055 89.26281094 -44.33984375 87.81640625 C-57.2620158 85.3978179 -69.22186612 78.72621142 -76.96484375 68.00390625 C-86.22753571 54.20188181 -88.67437573 39.63536328 -85.6875 23.234375 C-82.54085818 12.93013592 -76.48252335 3.83277416 -68.33984375 -3.18359375 C-67.84355469 -3.6321875 -67.34726563 -4.08078125 -66.8359375 -4.54296875 C-47.56812129 -20.189015 -17.33027561 -16.1729951 0 0 Z " fill="#FDFDFD" transform="translate(95.33984375,22.18359375)"/>
<path d="M0 0 C0.99 0.33 1.98 0.66 3 1 C3.89135742 2.94946289 3.89135742 2.94946289 4.60546875 5.47265625 C4.99702148 6.82133789 4.99702148 6.82133789 5.39648438 8.19726562 C5.78803711 9.61555664 5.78803711 9.61555664 6.1875 11.0625 C6.46013672 12.01189453 6.73277344 12.96128906 7.01367188 13.93945312 C7.68695447 16.29003623 8.34847283 18.64331147 9 21 C9.40992187 19.90300781 9.81984375 18.80601563 10.2421875 17.67578125 C10.78642886 16.22134314 11.33070133 14.76691667 11.875 13.3125 C12.14441406 12.59126953 12.41382812 11.87003906 12.69140625 11.12695312 C14.08668603 7.40053517 15.50202917 3.68675345 17 0 C17.99 0.33 18.98 0.66 20 1 C20.94921875 3.94921875 20.94921875 3.94921875 21.6875 7.6875 C22.06455078 9.51861328 22.06455078 9.51861328 22.44921875 11.38671875 C22.94916693 14.66652063 23.10674691 17.69084566 23 21 C23.66 21 24.32 21 25 21 C25.23783203 20.19949219 25.23783203 20.19949219 25.48046875 19.3828125 C27.40053915 13.25131697 30.00234357 7.67540486 33 2 C33.66 2.33 34.32 2.66 35 3 C35.50244141 5.04125977 35.50244141 5.04125977 35.8515625 7.69140625 C35.98046875 8.63564453 36.109375 9.57988281 36.2421875 10.55273438 C36.36851563 11.54595703 36.49484375 12.53917969 36.625 13.5625 C36.82609375 15.05813477 36.82609375 15.05813477 37.03125 16.58398438 C37.36229888 19.05502779 37.68482144 21.52689052 38 24 C38.66 24 39.32 24 40 24 C41.17819825 22.49869057 41.17819825 22.49869057 42.27734375 20.53515625 C42.70853516 19.81779297 43.13972656 19.10042969 43.58398438 18.36132812 C44.48361495 16.83338413 45.38206022 15.3047416 46.27929688 13.77539062 C46.71177734 13.05673828 47.14425781 12.33808594 47.58984375 11.59765625 C48.17560181 10.60004272 48.17560181 10.60004272 48.77319336 9.58227539 C50 8 50 8 53 7 C52.61131825 16.35516765 51.78358185 25.59173475 50.5625 34.875 C50.37917114 36.3283374 50.37917114 36.3283374 50.19213867 37.81103516 C50.06814697 38.71644043 49.94415527 39.6218457 49.81640625 40.5546875 C49.70756104 41.36405762 49.59871582 42.17342773 49.48657227 43.00732422 C49 45 49 45 47 47 C43.91539568 47.49821127 40.91999659 47.85825856 37.8125 48.125 C36.86375 48.2077417 35.915 48.2904834 34.9375 48.37573242 C26.82320817 49.00273417 18.70895682 49.2397989 10.57333374 49.29754639 C9.19831312 49.30746352 7.82331733 49.32194157 6.44839478 49.34112549 C4.49697842 49.36498643 2.54531184 49.36452105 0.59375 49.36328125 C-0.53353516 49.36626221 -1.66082031 49.36924316 -2.82226562 49.37231445 C-6.61726477 48.9276791 -8.88695944 48.24159345 -12 46 C-12.85122658 43.3668275 -13.23721416 41.46579006 -13.4609375 38.76953125 C-13.54123199 38.06028 -13.62152649 37.35102875 -13.70425415 36.62028503 C-13.95401596 34.35293509 -14.16442337 32.0837882 -14.375 29.8125 C-14.53790475 28.30376883 -14.70324452 26.79529847 -14.87109375 25.28710938 C-15.59831973 18.50302633 -16.08082521 11.82877956 -16 5 C-12.71886535 6.36209464 -11.32230325 7.57926163 -9.640625 10.6953125 C-9.24746094 11.41074219 -8.85429688 12.12617187 -8.44921875 12.86328125 C-8.05347656 13.60964844 -7.65773438 14.35601562 -7.25 15.125 C-6.63318359 16.25615234 -6.63318359 16.25615234 -6.00390625 17.41015625 C-4.99264653 19.26805201 -3.99498595 21.13333832 -3 23 C-2.94465088 22.40985107 -2.88930176 21.81970215 -2.83227539 21.21166992 C-2.57932313 18.53658792 -2.320973 15.86205397 -2.0625 13.1875 C-1.97548828 12.25873047 -1.88847656 11.32996094 -1.79882812 10.37304688 C-1.66831055 9.0340332 -1.66831055 9.0340332 -1.53515625 7.66796875 C-1.456604 6.84578857 -1.37805176 6.0236084 -1.29711914 5.17651367 C-1 3 -1 3 0 0 Z " fill="#173230" transform="translate(41,35)"/>
<path d="M0 0 C2.94376236 2.94376236 2.98350428 6.47397286 3.625 10.4375 C3.82609375 11.60249023 3.82609375 11.60249023 4.03125 12.79101562 C4.55484542 15.89251705 5 18.84934073 5 22 C7.39170259 19.84422368 8.63556355 17.97113297 9.82421875 14.98828125 C10.13037109 14.23095703 10.43652344 13.47363281 10.75195312 12.69335938 C11.06068359 11.90767578 11.36941406 11.12199219 11.6875 10.3125 C12.00783203 9.51521484 12.32816406 8.71792969 12.65820312 7.89648438 C13.44565711 5.93372593 14.22374743 3.96721541 15 2 C17.38820006 5.58230008 17.66723678 8.71010511 18.125 12.875 C18.21136719 13.58269531 18.29773438 14.29039063 18.38671875 15.01953125 C18.81810982 18.69662657 19.10162874 22.29781027 19 26 C22.84958181 22.57422536 25.19384631 18.65457753 27.75 14.25 C28.36681641 13.20392578 28.36681641 13.20392578 28.99609375 12.13671875 C30.00280366 10.42765309 31.00215064 8.71425404 32 7 C33.13082516 10.39247548 32.88850516 12.23857931 32.44140625 15.76171875 C32.23354492 17.43911133 32.23354492 17.43911133 32.02148438 19.15039062 C31.87001953 20.31763672 31.71855469 21.48488281 31.5625 22.6875 C31.41490234 23.86634766 31.26730469 25.04519531 31.11523438 26.25976562 C30.7494817 29.17398855 30.37749874 32.08727922 30 35 C20 33 20 33 17.41430664 32.44848633 C4.21818182 29.99714835 -9.28450458 32.56431176 -22.125 35.6328125 C-24 36 -24 36 -27 36 C-27.99 26.1 -28.98 16.2 -30 6 C-27.03512758 8.96487242 -24.96995998 12.01615077 -22.8125 15.5625 C-22.44447266 16.15224609 -22.07644531 16.74199219 -21.69726562 17.34960938 C-19 21.74830415 -19 21.74830415 -19 24 C-18.34 24 -17.68 24 -17 24 C-16.95101562 22.73542969 -16.90203125 21.47085938 -16.8515625 20.16796875 C-16.7765262 18.50779053 -16.70097873 16.84763536 -16.625 15.1875 C-16.57859375 13.93743164 -16.57859375 13.93743164 -16.53125 12.66210938 C-16.49257813 11.85966797 -16.45390625 11.05722656 -16.4140625 10.23046875 C-16.3826416 9.49207764 -16.3512207 8.75368652 -16.31884766 7.99291992 C-16 6 -16 6 -14 3 C-13.16338138 5.7907207 -12.33057263 8.58248012 -11.5 11.375 C-11.14228516 12.56609375 -11.14228516 12.56609375 -10.77734375 13.78125 C-10.55175781 14.54179688 -10.32617188 15.30234375 -10.09375 16.0859375 C-9.77954102 17.1385376 -9.77954102 17.1385376 -9.45898438 18.21240234 C-9 20 -9 20 -9 22 C-6.81531072 21.17748209 -6.81531072 21.17748209 -6.13037109 18.95874023 C-5.84758301 18.08419189 -5.56479492 17.20964355 -5.2734375 16.30859375 C-4.9640625 15.36435547 -4.6546875 14.42011719 -4.3359375 13.44726562 C-4.01882812 12.45404297 -3.70171875 11.46082031 -3.375 10.4375 C-3.05015625 9.44041016 -2.7253125 8.44332031 -2.390625 7.41601562 C-1.58701801 4.94610589 -0.79048458 2.4741346 0 0 Z " fill="#F6F7F7" transform="translate(58,42)"/>
<path d="M0 0 C3.22899426 -0.0875127 6.45768116 -0.14056146 9.6875 -0.1875 C11.05551758 -0.22520508 11.05551758 -0.22520508 12.45117188 -0.26367188 C21.03230051 -0.35728419 21.03230051 -0.35728419 25 3 C27.35620437 6.53430656 27.48991613 7.83571287 27 12 C24.96006092 15.6578218 23.49580738 17.66946174 20 20 C21.38493153 21.94614561 22.78198239 23.88130544 24.1875 25.8125 C24.76854492 26.63331055 24.76854492 26.63331055 25.36132812 27.47070312 C27.91483371 30.95275619 30.32946945 32.82897571 34 35 C34 35.99 34 36.98 34 38 C28.2005875 38.463953 25.5353148 37.60830349 21 34 C19.07804656 31.2432927 17.44260435 28.44816753 15.81445312 25.51367188 C13.77609344 21.78901256 13.77609344 21.78901256 10 20 C10.33 24.62 10.66 29.24 11 34 C11.99 34 12.98 34 14 34 C14 34.99 14 35.98 14 37 C9.38 37 4.76 37 0 37 C0 36.01 0 35.02 0 34 C1.485 33.505 1.485 33.505 3 33 C3.33 23.43 3.66 13.86 4 4 C2.68 3.67 1.36 3.34 0 3 C0 2.01 0 1.02 0 0 Z M10 3 C10 7.62 10 12.24 10 17 C11.464375 16.71125 12.92875 16.4225 14.4375 16.125 C15.67306641 15.88136719 15.67306641 15.88136719 16.93359375 15.6328125 C17.61550781 15.42398438 18.29742187 15.21515625 19 15 C20.39935013 12.20129973 20.25265405 10.09501208 20 7 C19.04451019 5.04374022 19.04451019 5.04374022 17 4 C13.38976901 3.26958147 13.38976901 3.26958147 10 3 Z " fill="#FFFFFF" transform="translate(123,39)"/>
<path d="M0 0 C1.2576416 0.01353516 2.5152832 0.02707031 3.81103516 0.04101562 C4.76800293 0.05841797 5.7249707 0.07582031 6.7109375 0.09375 C6.73599365 1.06723389 6.7610498 2.04071777 6.78686523 3.04370117 C6.88131028 6.66866347 6.98143917 10.29345066 7.08325195 13.91821289 C7.12646089 15.48457736 7.16814541 17.05098467 7.20825195 18.61743164 C7.26629621 20.8739918 7.32989052 23.13033908 7.39453125 25.38671875 C7.41124374 26.08274704 7.42795624 26.77877533 7.44517517 27.49589539 C7.55502169 31.13247797 7.86815741 34.55167427 8.7109375 38.09375 C10.1959375 38.58875 10.1959375 38.58875 11.7109375 39.09375 C11.3809375 40.08375 11.0509375 41.07375 10.7109375 42.09375 C6.0909375 42.09375 1.4709375 42.09375 -3.2890625 42.09375 C-3.2890625 41.10375 -3.2890625 40.11375 -3.2890625 39.09375 C-0.8140625 38.59875 -0.8140625 38.59875 1.7109375 38.09375 C1.3809375 34.13375 1.0509375 30.17375 0.7109375 26.09375 C-0.6090625 27.08375 -1.9290625 28.07375 -3.2890625 29.09375 C-7.72410022 29.53011328 -11.42662883 28.60754027 -15.2265625 26.34375 C-18.36437563 22.92068114 -19.14493466 20.36687923 -19.6640625 15.78125 C-19.12951978 10.52491328 -17.75520546 6.30584306 -13.734375 2.69921875 C-9.27004524 -0.01195147 -5.14910438 -0.07193161 0 0 Z M-12.2890625 9.09375 C-13.11421513 13.82574773 -12.8774478 17.97150674 -10.2890625 22.09375 C-7.45998579 24.43935055 -7.45998579 24.43935055 -4.2265625 23.78125 C-1.3759202 23.2336874 -1.3759202 23.2336874 0.7109375 22.09375 C1.13437145 19.59489332 1.40811986 17.23627347 1.5859375 14.71875 C1.658125 14.03296875 1.7303125 13.3471875 1.8046875 12.640625 C2.01962406 10.37796407 2.01962406 10.37796407 1.7109375 7.09375 C-0.42984705 4.83024532 -1.69151003 4.21632487 -4.7265625 3.59375 C-8.65165467 4.35962164 -9.98222089 5.86417175 -12.2890625 9.09375 Z " fill="#FFFFFF" transform="translate(238.2890625,47.90625)"/>
<path d="M0 0 C8.91 0 17.82 0 27 0 C27.33 2.97 27.66 5.94 28 9 C26.68 9 25.36 9 24 9 C23.79632813 8.35546875 23.59265625 7.7109375 23.3828125 7.046875 C22.1332065 4.68846128 22.1332065 4.68846128 19.1796875 4.390625 C18.08914063 4.34421875 16.99859375 4.2978125 15.875 4.25 C13.93625 4.1675 11.9975 4.085 10 4 C10 7.96 10 11.92 10 16 C12.97 16 15.94 16 19 16 C19.33 14.68 19.66 13.36 20 12 C21.32 12.33 22.64 12.66 24 13 C24 16.63 24 20.26 24 24 C22.68 24.33 21.36 24.66 20 25 C19.835 24.360625 19.67 23.72125 19.5 23.0625 C18.218214 20.83880759 18.218214 20.83880759 16.0859375 20.51171875 C14.06424845 20.2724022 12.03158061 20.13106972 10 20 C10.33 24.29 10.66 28.58 11 33 C12.32 33.33 13.64 33.66 15 34 C15 34.99 15 35.98 15 37 C10.05 37 5.1 37 0 37 C0 36.01 0 35.02 0 34 C0.99 34 1.98 34 3 34 C3.33 24.1 3.66 14.2 4 4 C2.68 3.67 1.36 3.34 0 3 C0 2.01 0 1.02 0 0 Z " fill="#FFFFFF" transform="translate(265,39)"/>
<path d="M0 0 C1.35085807 -0.63040043 2.68252676 -1.30251417 4 -2 C7.59466995 -2.45889404 9.49681123 -2.25159438 12.75 -0.625 C18.18096912 5.71113064 17.27089607 15.08381471 17 23 C18.32 23 19.64 23 21 23 C21 23.99 21 24.98 21 26 C16.38 26 11.76 26 7 26 C7 25.01 7 24.02 7 23 C7.99 22.67 8.98 22.34 10 22 C10.054138 19.75026553 10.09285491 17.50015617 10.125 15.25 C10.14820313 13.99703125 10.17140625 12.7440625 10.1953125 11.453125 C10.01537302 8.27179508 9.68998582 6.63478104 8 4 C4.65747276 3.92572162 2.1964086 3.93453047 -1 5 C-1 10.94 -1 16.88 -1 23 C0.32 23 1.64 23 3 23 C3 23.99 3 24.98 3 26 C-1.62 26 -6.24 26 -11 26 C-11 25.01 -11 24.02 -11 23 C-10.01 22.67 -9.02 22.34 -8 22 C-8 16.06 -8 10.12 -8 4 C-9.32 3.67 -10.64 3.34 -12 3 C-12 2.01 -12 1.02 -12 0 C-4.13114754 -2.36065574 -4.13114754 -2.36065574 0 0 Z " fill="#FFFFFF" transform="translate(387,50)"/>
<path d="M0 0 C0.99 0.495 0.99 0.495 2 1 C3.41904116 5.54093172 3.09226843 10.2943099 3 15 C4.61068359 14.58427734 4.61068359 14.58427734 6.25390625 14.16015625 C7.69005529 13.79407904 9.12625599 13.42820442 10.5625 13.0625 C11.26697266 12.88009766 11.97144531 12.69769531 12.69726562 12.50976562 C20.50286134 10.53138883 27.90379565 9.85807935 35.9375 9.9375 C36.81212891 9.94201172 37.68675781 9.94652344 38.58789062 9.95117188 C40.72529047 9.96285166 42.86265463 9.98078311 45 10 C43.68 10.33 42.36 10.66 41 11 C41 11.66 41 12.32 41 13 C42.01320313 13.09087891 42.01320313 13.09087891 43.046875 13.18359375 C43.93890625 13.26738281 44.8309375 13.35117188 45.75 13.4375 C47.07257813 13.55931641 47.07257813 13.55931641 48.421875 13.68359375 C50.69350452 13.96238465 52.79851823 14.38790577 55 15 C55 15.66 55 16.32 55 17 C48.73 17.66 42.46 18.32 36 19 C36.66 19.66 37.32 20.32 38 21 C33.6950223 21.07451364 29.39039266 21.12877223 25.08496094 21.16479492 C23.62232925 21.17982196 22.15974218 21.20024955 20.69726562 21.22631836 C18.5871272 21.26297267 16.47758774 21.27978676 14.3671875 21.29296875 C12.46622314 21.31653442 12.46622314 21.31653442 10.52685547 21.34057617 C6.66886026 20.96802299 4.26712555 20.05786479 1 18 C-0.96893047 12.51512225 -0.08432005 5.78997648 0 0 Z " fill="#14302D" transform="translate(28,63)"/>
<path d="M0 0 C0.33 0.53625 0.66 1.0725 1 1.625 C1.70125 1.13 2.4025 0.635 3.125 0.125 C6.49395521 -1.63271576 8.25082097 -1.92175527 12 -1.375 C15.33761045 0.77590451 16.73470933 1.82912799 18 5.625 C18.14403348 6.95863703 18.24590423 8.29718046 18.31640625 9.63671875 C18.35830078 10.39404297 18.40019531 11.15136719 18.44335938 11.93164062 C18.48267578 12.71732422 18.52199219 13.50300781 18.5625 14.3125 C18.60568359 15.10978516 18.64886719 15.90707031 18.69335938 16.72851562 C18.79927368 18.69381447 18.90012551 20.65938496 19 22.625 C19.99 22.955 20.98 23.285 22 23.625 C22 24.615 22 25.605 22 26.625 C17.71 26.625 13.42 26.625 9 26.625 C9 25.635 9 24.645 9 23.625 C9.99 23.625 10.98 23.625 12 23.625 C12.0272616 21.58340905 12.04651345 19.54171037 12.0625 17.5 C12.07410156 16.36304687 12.08570313 15.22609375 12.09765625 14.0546875 C12.005327 10.8120844 11.61389906 7.80567388 11 4.625 C5.67829506 4.32937633 5.67829506 4.32937633 1 6.625 C0.77892213 9.4135289 0.71892465 11.97153181 0.8125 14.75 C0.82603516 15.50410156 0.83957031 16.25820312 0.85351562 17.03515625 C0.88890015 18.89874127 0.94270833 20.76195978 1 22.625 C1.99 22.955 2.98 23.285 4 23.625 C4 24.615 4 25.605 4 26.625 C-0.62 26.625 -5.24 26.625 -10 26.625 C-10 25.635 -10 24.645 -10 23.625 C-8.68 23.625 -7.36 23.625 -6 23.625 C-6 17.355 -6 11.085 -6 4.625 C-7.32 4.295 -8.64 3.965 -10 3.625 C-10 2.635 -10 1.645 -10 0.625 C-2.49230769 -1.71346154 -2.49230769 -1.71346154 0 0 Z " fill="#FFFFFF" transform="translate(321,49.375)"/>
<path d="M0 0 C2.75329021 1.79562405 4.52627461 3.05254922 6 6 C6.08308638 7.37548156 6.10736016 8.75485796 6.09765625 10.1328125 C6.09443359 10.93847656 6.09121094 11.74414062 6.08789062 12.57421875 C6.07951172 13.41597656 6.07113281 14.25773437 6.0625 15.125 C6.05798828 15.97449219 6.05347656 16.82398437 6.04882812 17.69921875 C6.03702874 19.79950909 6.01909306 21.8997633 6 24 C7.32 24 8.64 24 10 24 C9.67 25.32 9.34 26.64 9 28 C5.625 28.625 5.625 28.625 2 29 C1.34 28.34 0.68 27.68 0 27 C-0.53625 27.33 -1.0725 27.66 -1.625 28 C-4.68741139 29.28943638 -6.69939439 29.40415579 -10 29 C-12.875 27.375 -12.875 27.375 -15 25 C-15.625 22 -15.625 22 -15 19 C-11.25964808 14.77702203 -6.26195145 13.51324094 -1 12 C-1 10.35 -1 8.7 -1 7 C-2.98 6.34 -4.96 5.68 -7 5 C-7.66 6.65 -8.32 8.3 -9 10 C-10.65 10 -12.3 10 -14 10 C-14.33 8.35 -14.66 6.7 -15 5 C-9.94713671 0.76651994 -6.67276942 -0.57523874 0 0 Z M-8 19 C-8.33 19.66 -8.66 20.32 -9 21 C-8.01 22.485 -8.01 22.485 -7 24 C-4.5 24.41666667 -4.5 24.41666667 -2 24 C0.34973818 22.10244856 0.34973818 22.10244856 0.125 18.875 C0.08375 17.92625 0.0425 16.9775 0 16 C-2.69118043 16 -5.62231064 17.8960728 -8 19 Z " fill="#FFFFFF" transform="translate(363,48)"/>
<path d="M0 0 C2.38527062 1.9082165 3.29939676 2.84348031 4.1875 5.75 C4.1875 8.06 4.1875 10.37 4.1875 12.75 C-1.4225 12.75 -7.0325 12.75 -12.8125 12.75 C-10.52433213 19.28576165 -10.52433213 19.28576165 -7.8125 21.75 C-3.15629204 22.26735644 -0.61430386 21.43362626 3.1875 18.75 C3.5175 20.07 3.8475 21.39 4.1875 22.75 C0.80864085 26.21549657 -1.3753559 28.12036072 -6.3125 28.3125 C-10.76455203 28.03518363 -13.45820846 26.7848352 -16.8125 23.75 C-19.90604853 19.21279548 -20.60346487 15.09435721 -19.8125 9.75 C-18.20129472 5.56086628 -16.2448836 2.64607366 -12.8125 -0.25 C-8.26187587 -1.76687471 -4.43015604 -1.96895824 0 0 Z M-11.125 4.5625 C-13.11790173 6.68543204 -13.11790173 6.68543204 -12.8125 9.75 C-8.8525 9.75 -4.8925 9.75 -0.8125 9.75 C-1.78026098 5.95452079 -1.78026098 5.95452079 -3.8125 2.75 C-7.18063961 2.294846 -8.40747504 2.432548 -11.125 4.5625 Z " fill="#FFFFFF" transform="translate(456.8125,49.25)"/>
<path d="M0 0 C3.90472365 1.50864323 4.83779392 2.69236779 6.8125 6.4375 C8 10 8 10 8 14 C2.06 14 -3.88 14 -10 14 C-7.81940167 20.84825895 -7.81940167 20.84825895 -4 23 C0.09919904 22.70187643 3.45612679 22.12632393 7 20 C7 24 7 24 5.125 26.1875 C1.53385217 29.25053785 -1.08342596 29.35429886 -5.6796875 29.265625 C-9.45962345 28.83290506 -11.29213555 27.64339149 -14 25 C-17.16787493 19.48430287 -17.45146588 14.34500038 -15.94140625 8.23828125 C-13.05086446 1.36574828 -6.93359572 -0.47007429 0 0 Z M-10 8 C-10 8.99 -10 9.98 -10 11 C-6.04 11 -2.08 11 2 11 C1.50847518 6.13867505 1.50847518 6.13867505 -1 4 C-5.47373182 3.29362129 -7.27605554 4.46896088 -10 8 Z " fill="#FFFFFF" transform="translate(174,48)"/>
<path d="M0 0 C3 1.1875 3 1.1875 5 3 C5.3125 5.6875 5.3125 5.6875 5 8 C2.6875 8.1875 2.6875 8.1875 0 8 C-0.495 7.484375 -0.99 6.96875 -1.5 6.4375 C-2.9553702 4.72863766 -2.9553702 4.72863766 -5.5 4.875 C-8.31807505 5.86314812 -8.31807505 5.86314812 -9.9375 9.125 C-11.42373616 13.20585184 -10.68983481 16.00584498 -9 20 C-7.97578739 22.10938785 -7.97578739 22.10938785 -6 23 C-1.88665824 22.7756359 1.45354279 22.12787433 5 20 C5.75 21.75 5.75 21.75 6 24 C3.78132865 26.77333918 2.39379675 27.86873442 -1 29 C-6.30934666 29.34253849 -9.74909723 29.54241898 -14 26 C-17.92760361 21.6477906 -18.63841279 18.07276385 -18.3828125 12.3984375 C-17.58724664 7.41397382 -14.94707941 4.81793221 -11.25 1.625 C-6.96224232 -0.51887884 -4.76434281 -0.52937142 0 0 Z " fill="#FFFFFF" transform="translate(429,48)"/>
<path d="M0 0 C0.33 12.87 0.66 25.74 1 39 C1.99 39.33 2.98 39.66 4 40 C4 40.99 4 41.98 4 43 C-0.62 43 -5.24 43 -10 43 C-10 42.01 -10 41.02 -10 40 C-8.515 39.505 -8.515 39.505 -7 39 C-6.67 27.78 -6.34 16.56 -6 5 C-7.65 5 -9.3 5 -11 5 C-11 3.68 -11 2.36 -11 1 C-4.5 -1.125 -4.5 -1.125 0 0 Z " fill="#FFFFFF" transform="translate(195,33)"/>
<path d="M0 0 C0.66 0 1.32 0 2 0 C1.61131825 9.35516765 0.78358185 18.59173475 -0.4375 27.875 C-0.55971924 28.8438916 -0.68193848 29.8127832 -0.80786133 30.81103516 C-0.93185303 31.71644043 -1.05584473 32.6218457 -1.18359375 33.5546875 C-1.34686157 34.76874268 -1.34686157 34.76874268 -1.51342773 36.00732422 C-2 38 -2 38 -4 40 C-12.04309427 41.79487999 -20.80826375 41.09830084 -29 41 C-28.67 40.34 -28.34 39.68 -28 39 C-21.65057468 37.99215471 -15.41772028 37.87941653 -9 38 C-9 37.34 -9 36.68 -9 36 C-9.59167969 35.93941406 -10.18335937 35.87882812 -10.79296875 35.81640625 C-14.90978208 35.37987629 -18.95544533 34.91328654 -23 34 C-23 33.34 -23 32.68 -23 32 C-16.03672362 31.66306727 -10.56654456 32.6969113 -4 35 C-4.02320312 34.46375 -4.04640625 33.9275 -4.0703125 33.375 C-4.25997976 25.13802201 -3.13081102 17.13780076 -2 9 C-2.32274902 9.51498047 -2.64549805 10.02996094 -2.97802734 10.56054688 C-4.43638033 12.87838945 -5.9054995 15.18921046 -7.375 17.5 C-7.88289063 18.31082031 -8.39078125 19.12164062 -8.9140625 19.95703125 C-9.40390625 20.72402344 -9.89375 21.49101563 -10.3984375 22.28125 C-10.84880371 22.99345703 -11.29916992 23.70566406 -11.76318359 24.43945312 C-12.17133301 24.95443359 -12.57948242 25.46941406 -13 26 C-13.66 26 -14.32 26 -15 26 C-15.98248524 21.9472484 -16.08159574 18.16138263 -16 14 C-15.34 13.67 -14.68 13.34 -14 13 C-13.34 14.65 -12.68 16.3 -12 18 C-11.67201416 17.49025635 -11.34402832 16.9805127 -11.00610352 16.45532227 C-9.52619201 14.15688144 -8.0443721 11.8596772 -6.5625 9.5625 C-6.04623047 8.76005859 -5.52996094 7.95761719 -4.99804688 7.13085938 C-4.50498047 6.36708984 -4.01191406 5.60332031 -3.50390625 4.81640625 C-3.04830322 4.10943604 -2.5927002 3.40246582 -2.12329102 2.67407227 C-1 1 -1 1 0 0 Z " fill="#132F2C" transform="translate(92,42)"/>
<path d="M0 0 C0.33 7.59 0.66 15.18 1 23 C1.99 23.33 2.98 23.66 4 24 C4 24.99 4 25.98 4 27 C-0.95 27 -5.9 27 -11 27 C-11 26.01 -11 25.02 -11 24 C-9.68 23.67 -8.36 23.34 -7 23 C-7 17.06 -7 11.12 -7 5 C-8.32 5 -9.64 5 -11 5 C-11 3.68 -11 2.36 -11 1 C-3.375 -1.125 -3.375 -1.125 0 0 Z " fill="#FFFFFF" transform="translate(305,49)"/>
<path d="M0 0 C0.33 7.59 0.66 15.18 1 23 C1.99 23.33 2.98 23.66 4 24 C4 24.99 4 25.98 4 27 C-0.95 27 -5.9 27 -11 27 C-11 26.01 -11 25.02 -11 24 C-9.68 23.67 -8.36 23.34 -7 23 C-7 17.06 -7 11.12 -7 5 C-8.32 5 -9.64 5 -11 5 C-11 3.68 -11 2.36 -11 1 C-3.375 -1.125 -3.375 -1.125 0 0 Z " fill="#FFFFFF" transform="translate(212,49)"/>
<path d="M0 0 C0.96583008 -0.00531738 1.93166016 -0.01063477 2.92675781 -0.01611328 C8.96206746 0.04297512 14.34230691 0.80464443 20.1875 2.3125 C20.1875 2.9725 20.1875 3.6325 20.1875 4.3125 C13.65939383 5.07096087 7.24957901 5.45246515 0.6796875 5.41015625 C-0.17180878 5.4087413 -1.02330505 5.40732635 -1.90060425 5.40586853 C-4.57960759 5.40033919 -7.25852257 5.38780074 -9.9375 5.375 C-11.77083211 5.36997584 -13.60416556 5.36541455 -15.4375 5.36132812 C-19.89586659 5.35039306 -24.35416839 5.33317872 -28.8125 5.3125 C-20.54510941 -0.19909373 -9.61081361 0.02617492 0 0 Z " fill="#F1F3F3" transform="translate(62.8125,75.6875)"/>
<path d="M0 0 C0.66 0.33 1.32 0.66 2 1 C2.6328125 3.546875 2.6328125 3.546875 3.125 6.75 C3.29257813 7.79671875 3.46015625 8.8434375 3.6328125 9.921875 C3.95898328 12.6561577 4.07126854 15.25107058 4 18 C3.01 18 2.02 18 1 18 C0.67 15.36 0.34 12.72 0 10 C-3.37018143 14.04617712 -4.87806793 18.53898133 -6.71875 23.41796875 C-7.1415625 24.27003906 -7.564375 25.12210938 -8 26 C-8.99 26.33 -9.98 26.66 -11 27 C-11.66 23.37 -12.32 19.74 -13 16 C-12.34 16 -11.68 16 -11 16 C-10.67 15.01 -10.34 14.02 -10 13 C-10 14.98 -10 16.96 -10 19 C-9.34 19 -8.68 19 -8 19 C-7.84144531 18.46632813 -7.68289062 17.93265625 -7.51953125 17.3828125 C-5.59946085 11.25131697 -2.99765643 5.67540486 0 0 Z " fill="#213B38" transform="translate(74,37)"/>
<path d="M0 0 C2.5 -0.3125 2.5 -0.3125 5 0 C5.66 0.66 6.32 1.32 7 2 C6.44444444 6.55555556 6.44444444 6.55555556 5 8 C3.33382885 8.04063832 1.66611905 8.042721 0 8 C-1.125 5.6875 -1.125 5.6875 -2 3 C-1.34 2.01 -0.68 1.02 0 0 Z " fill="#FFFFFF" transform="translate(299,34)"/>
<path d="M0 0 C2.5 -0.3125 2.5 -0.3125 5 0 C5.66 0.66 6.32 1.32 7 2 C6.44444444 6.55555556 6.44444444 6.55555556 5 8 C3.33382885 8.04063832 1.66611905 8.042721 0 8 C-1.125 5.6875 -1.125 5.6875 -2 3 C-1.34 2.01 -0.68 1.02 0 0 Z " fill="#FFFFFF" transform="translate(206,34)"/>
<path d="M0 0 C0.33 0 0.66 0 1 0 C1 1.98 1 3.96 1 6 C1.66 6 2.32 6 3 6 C3.33 4.68 3.66 3.36 4 2 C4.99 2 5.98 2 7 2 C6.54738642 3.43931117 6.08767021 4.87638999 5.625 6.3125 C5.36976562 7.11300781 5.11453125 7.91351563 4.8515625 8.73828125 C4 11 4 11 2 14 C1.34 14 0.68 14 0 14 C-0.66 10.37 -1.32 6.74 -2 3 C-1.34 3 -0.68 3 0 3 C0 2.01 0 1.02 0 0 Z " fill="#213C39" transform="translate(63,50)"/>
<path d="M0 0 C1.5090332 1.24926758 1.5090332 1.24926758 3 3 C3.15698242 4.90112305 3.15698242 4.90112305 2.85546875 7.01171875 C2.70561523 8.14770508 2.70561523 8.14770508 2.55273438 9.30664062 C2.43220703 10.09232422 2.31167969 10.87800781 2.1875 11.6875 C2.07857422 12.48478516 1.96964844 13.28207031 1.85742188 14.10351562 C1.58643601 16.07110863 1.29514792 18.03588613 1 20 C0.01 20 -0.98 20 -2 20 C-1.03644647 6.3667426 -1.03644647 6.3667426 0 0 Z " fill="#223C39" transform="translate(90,52)"/>
<path d="M0 0 C4.45821166 -0.08674429 8.91620804 -0.14030513 13.375 -0.1875 C14.64601563 -0.21263672 15.91703125 -0.23777344 17.2265625 -0.26367188 C18.43828125 -0.27333984 19.65 -0.28300781 20.8984375 -0.29296875 C22.01911621 -0.3086792 23.13979492 -0.32438965 24.29443359 -0.34057617 C25.18727051 -0.22818604 26.08010742 -0.1157959 27 0 C27.66 0.99 28.32 1.98 29 3 C26.69 3 24.38 3 22 3 C22 2.34 22 1.68 22 1 C14.74 1 7.48 1 0 1 C0 0.67 0 0.34 0 0 Z " fill="#5C6E6C" transform="translate(37,81)"/>
<path d="M0 0 C0.99 0 1.98 0 3 0 C3.20496094 0.69867188 3.40992188 1.39734375 3.62109375 2.1171875 C3.89050781 3.02726562 4.15992188 3.93734375 4.4375 4.875 C4.83775391 6.23238281 4.83775391 6.23238281 5.24609375 7.6171875 C5.92613826 9.98275381 5.92613826 9.98275381 7 12 C5.68 12.33 4.36 12.66 3 13 C2.49487756 11.39743892 1.99608373 9.79288208 1.5 8.1875 C1.2215625 7.29417969 0.943125 6.40085937 0.65625 5.48046875 C0 3 0 3 0 0 Z " fill="#233D3A" transform="translate(44,46)"/>
<path d="M0 0 C0.33 0 0.66 0 1 0 C1.33 4.29 1.66 8.58 2 13 C1.01 13.66 0.02 14.32 -1 15 C-1.33 10.71 -1.66 6.42 -2 2 C-1.34 2 -0.68 2 0 2 C0 1.34 0 0.68 0 0 Z " fill="#223C39" transform="translate(28,51)"/>
<path d="M0 0 C0.33 0 0.66 0 1 0 C1.33 4.29 1.66 8.58 2 13 C1.01 13 0.02 13 -1 13 C-1.22245393 11.39773045 -1.42746669 9.79303233 -1.625 8.1875 C-1.74101563 7.29417969 -1.85703125 6.40085937 -1.9765625 5.48046875 C-2 3 -2 3 0 0 Z " fill="#233D3A" transform="translate(76,42)"/>
<path d="M0 0 C0.33 0 0.66 0 1 0 C1 1.65 1 3.3 1 5 C1.66 5 2.32 5 3 5 C2.67 7.97 2.34 10.94 2 14 C1.34 14 0.68 14 0 14 C-1.125 10.25 -1.125 10.25 0 8 C0.0689472 6.62657169 0.08467708 5.24997898 0.0625 3.875 C0.041875 2.59625 0.02125 1.3175 0 0 Z " fill="#253E3C" transform="translate(39,52)"/>
<path d="M0 0 C0.66 0.33 1.32 0.66 2 1 C2 3.31 2 5.62 2 8 C1.01 8.33 0.02 8.66 -1 9 C-1.99 8.01 -2.98 7.02 -4 6 C-2.68 5.67 -1.36 5.34 0 5 C0 3.35 0 1.7 0 0 Z " fill="#092724" transform="translate(88,72)"/>
<path d="M0 0 C-0.33 1.98 -0.66 3.96 -1 6 C-1.99 6.33 -2.98 6.66 -4 7 C-4.33 5.02 -4.66 3.04 -5 1 C-2 0 -2 0 0 0 Z " fill="#0F2C2A" transform="translate(53,57)"/>
<path d="M0 0 C0.66 0.33 1.32 0.66 2 1 C2 2.98 2 4.96 2 7 C0.68 7.33 -0.64 7.66 -2 8 C-1.125 1.125 -1.125 1.125 0 0 Z " fill="#0F2C29" transform="translate(74,37)"/>
<path d="M0 0 C0.99 0 1.98 0 3 0 C2.34 1.98 1.68 3.96 1 6 C-0.32 6 -1.64 6 -3 6 C-3 5.34 -3 4.68 -3 4 C-2.34 4 -1.68 4 -1 4 C-0.67 2.68 -0.34 1.36 0 0 Z " fill="#2C4542" transform="translate(67,52)"/>
<path d="M0 0 C0 0.66 0 1.32 0 2 C-2.64 2.33 -5.28 2.66 -8 3 C-8 2.34 -8 1.68 -8 1 C-5.29120665 -0.35439668 -2.99066732 -0.06501451 0 0 Z " fill="#0F2B28" transform="translate(44,76)"/>
<path d="M0 0 C2.97 0 5.94 0 9 0 C8.01 1.485 8.01 1.485 7 3 C4.69 2.67 2.38 2.34 0 2 C0 1.34 0 0.68 0 0 Z " fill="#132F2C" transform="translate(69,74)"/>
<path d="M0 0 C0.33 0 0.66 0 1 0 C1 2.31 1 4.62 1 7 C0.01 7 -0.98 7 -2 7 C-2.125 4.625 -2.125 4.625 -2 2 C-1.34 1.34 -0.68 0.68 0 0 Z " fill="#1B3633" transform="translate(90,65)"/>
<path d="M0 0 C1.32 1.65 2.64 3.3 4 5 C3.01 5.66 2.02 6.32 1 7 C0.01 5.02 -0.98 3.04 -2 1 C-1.34 0.67 -0.68 0.34 0 0 Z " fill="#193331" transform="translate(36,56)"/>
</svg>
