<?xml version="1.0" encoding="UTF-8"?>
<svg version="1.1" xmlns="http://www.w3.org/2000/svg" width="945" height="239">
<path d="M0 0 C18.83530066 16.5011498 32.71091539 40.76498779 34.48876953 66.11425781 C35.50996422 95.36571741 30.16163671 122.17835585 9.70703125 144.36328125 C7.90958663 146.25352459 6.0904568 148.12045307 4.26953125 149.98828125 C3.686875 150.64441406 3.10421875 151.30054688 2.50390625 151.9765625 C-13.76862219 169.85168844 -39.9756886 177.64961894 -63.34521484 178.90673828 C-89.70757793 179.80796953 -113.80508884 170.95515215 -133.73046875 153.98828125 C-134.64699219 153.2921875 -135.56351563 152.59609375 -136.5078125 151.87890625 C-137.60802734 150.94304687 -137.60802734 150.94304687 -138.73046875 149.98828125 C-138.73046875 149.32828125 -138.73046875 148.66828125 -138.73046875 147.98828125 C-139.39046875 147.98828125 -140.05046875 147.98828125 -140.73046875 147.98828125 C-142.55355474 145.94448999 -144.2459881 143.90122922 -145.91796875 141.73828125 C-146.41192139 141.10003418 -146.90587402 140.46178711 -147.41479492 139.80419922 C-161.5128801 121.28449418 -168.35920913 100.47699081 -168.16796875 77.17578125 C-168.15967041 75.86206543 -168.15137207 74.54834961 -168.14282227 73.19482422 C-167.66502378 45.66614979 -155.99563766 22.28161561 -136.73046875 2.98828125 C-136.01375 2.25996094 -135.29703125 1.53164063 -134.55859375 0.78125 C-97.76378477 -34.28447961 -37.66460889 -31.33646782 0 0 Z " fill="#FDFDFD" transform="translate(185.73046875,41.01171875)"/>
<path d="M0 0 C2.03173828 0.14160156 2.03173828 0.14160156 4 1 C4.90966797 2.61621094 4.90966797 2.61621094 5.4921875 4.734375 C5.71938477 5.52658447 5.94658203 6.31879395 6.18066406 7.13500977 C6.40979492 7.99795654 6.63892578 8.86090332 6.875 9.75 C7.12475586 10.63292725 7.37451172 11.51585449 7.63183594 12.42553711 C8.43673283 15.27960503 9.21866574 18.13940077 10 21 C10.81460214 23.92454729 11.63507831 26.84730472 12.46142578 29.76855469 C12.97962128 31.604539 13.49122209 33.44239983 13.99560547 35.28222656 C14.34582764 36.53664551 14.34582764 36.53664551 14.703125 37.81640625 C15.00718262 38.92157593 15.00718262 38.92157593 15.31738281 40.04907227 C16.00737696 42.28057931 16.00737696 42.28057931 18 45 C18.34780518 43.94611084 18.69561035 42.89222168 19.05395508 41.80639648 C20.3535848 37.87112031 21.65727725 33.93719985 22.9621582 30.00366211 C23.52477945 28.3057833 24.08631993 26.60754595 24.64672852 24.90893555 C25.45560691 22.45785425 26.2684512 20.00811787 27.08203125 17.55859375 C27.32903275 16.80726669 27.57603424 16.05593964 27.83052063 15.28184509 C29.3424332 10.74515583 30.92545367 6.31312009 33 2 C35.1875 1.0625 35.1875 1.0625 37 1 C38.88900434 4.30289395 39.55810712 7.35371528 40.18359375 11.09375 C40.38919922 12.29 40.59480469 13.48625 40.80664062 14.71875 C41.01482422 15.9665625 41.22300781 17.214375 41.4375 18.5 C42.93957743 27.44612677 44.65358982 36.233593 47 45 C47.36351562 44.06800781 47.72703125 43.13601562 48.1015625 42.17578125 C51.45690007 33.64147958 55.09575468 25.30044649 59 17 C59.96170592 14.89737263 60.92026274 12.79330077 61.875 10.6875 C62.28492188 9.78386719 62.69484375 8.88023438 63.1171875 7.94921875 C63.40851563 7.30597656 63.69984375 6.66273437 64 6 C65.65 6.33 67.3 6.66 69 7 C69.6953833 11.96193339 70.38908585 16.92409795 71.08129883 21.88647461 C71.31652517 23.57110792 71.55219359 25.25567957 71.78833008 26.94018555 C72.12961013 29.37532336 72.46924706 31.81068585 72.80859375 34.24609375 C72.91280136 34.98709824 73.01700897 35.72810272 73.12437439 36.49156189 C73.75556869 41.03530293 74.28658042 45.57708157 74.72547913 50.14369202 C74.91465485 52.08893674 74.91465485 52.08893674 76 54 C84.42489683 40.72280372 92.74579794 27.38394351 101 14 C102.65 14.33 104.3 14.66 106 15 C105.00804813 28.25267691 103.31963958 41.41888686 101.67138672 54.60205078 C101.30382539 57.54754172 100.94351995 60.49378666 100.58935547 63.44091797 C100.15817768 67.02878198 99.71502747 70.614973 99.26314926 74.20028687 C99.09395236 75.55851319 98.92891366 76.91726447 98.76819229 78.27651978 C98.54336245 80.17012739 98.30158802 82.06169985 98.05908203 83.953125 C97.86042038 85.56429199 97.86042038 85.56429199 97.65774536 87.20800781 C96.9514628 90.20603033 96.11523077 91.78263755 94 94 C91.51757812 94.69775391 91.51757812 94.69775391 88.53125 94.9765625 C87.41878906 95.08895264 86.30632812 95.20134277 85.16015625 95.31713867 C83.95230469 95.41873291 82.74445313 95.52032715 81.5 95.625 C80.23027344 95.74270752 78.96054688 95.86041504 77.65234375 95.98168945 C75.01899503 96.22145625 72.38484657 96.45258879 69.75 96.67529297 C66.48450416 96.95804749 63.22803533 97.28337382 59.96875 97.62890625 C45.13651561 99.08624596 30.27208831 99.25932426 15.37915039 99.35147095 C13.01419262 99.36707248 10.64926678 99.38879483 8.28442383 99.4168396 C4.92500095 99.45275896 1.56662469 99.46076361 -1.79296875 99.4609375 C-2.80344772 99.47521286 -3.8139267 99.48948822 -4.85502625 99.50419617 C-12.47116606 99.45585108 -17.44022915 97.76158399 -23.43896484 93.10791016 C-25.41877062 90.43452213 -25.67422355 88.5748094 -25.9765625 85.2734375 C-26.09 84.15839844 -26.2034375 83.04335937 -26.3203125 81.89453125 C-26.47113281 80.15236328 -26.47113281 80.15236328 -26.625 78.375 C-26.84230062 76.09075659 -27.06360107 73.80688986 -27.2890625 71.5234375 C-27.39895508 70.41033203 -27.50884766 69.29722656 -27.62207031 68.15039062 C-27.95709222 65.35767567 -28.42766836 62.67617221 -29.0234375 59.9296875 C-30.24406123 54.24151174 -30.61062399 48.54540516 -31 42.75 C-31.58869143 34.65579014 -32.31125252 26.68256163 -33.6328125 18.671875 C-33.98952722 16.07620621 -34.06683513 13.61611781 -34 11 C-32.68 10.67 -31.36 10.34 -30 10 C-26.91577551 13.6733557 -24.38571331 17.51145929 -21.99609375 21.65625 C-21.6315358 22.2810022 -21.26697784 22.90575439 -20.89137268 23.54943848 C-19.73628696 25.53077873 -18.58676501 27.51527895 -17.4375 29.5 C-16.66248703 30.83225102 -15.88709974 32.16428435 -15.11132812 33.49609375 C-14.01593522 35.37670397 -12.92106162 37.25759109 -11.82920837 39.14025879 C-9.91307494 42.44347551 -7.97356605 45.73076659 -6 49 C-5.2211376 46.18425258 -4.81806774 43.54444184 -4.64282227 40.63037109 C-4.58929092 39.77623627 -4.53575958 38.92210144 -4.48060608 38.04208374 C-4.42642014 37.12843048 -4.37223419 36.21477722 -4.31640625 35.2734375 C-4.19238004 33.33591681 -4.06802111 31.3984174 -3.94335938 29.4609375 C-3.75091368 26.40841861 -3.56134472 23.35579519 -3.37768555 20.30273438 C-3.19877679 17.35488685 -3.00842914 14.40795571 -2.81640625 11.4609375 C-2.76424454 10.54323578 -2.71208282 9.62553406 -2.65834045 8.68002319 C-2.5733152 7.40827744 -2.5733152 7.40827744 -2.48657227 6.11083984 C-2.44073502 5.36345551 -2.39489777 4.61607117 -2.34767151 3.84603882 C-2 2 -2 2 0 0 Z " fill="#14302E" transform="translate(83,69)"/>
<path d="M0 0 C1.8448868 2.7673302 2.36594299 3.98276565 2.96142578 7.10424805 C3.12144073 7.92487228 3.28145569 8.74549652 3.44631958 9.59098816 C3.61098724 10.47232925 3.77565491 11.35367035 3.9453125 12.26171875 C4.12005096 13.16751175 4.29478943 14.07330475 4.474823 15.00654602 C5.03129006 17.89901186 5.57825038 20.79318322 6.125 23.6875 C6.50067725 25.6492083 6.87697184 27.61079849 7.25390625 29.57226562 C8.176439 34.38016931 9.09044992 39.18962411 10 44 C13.13619069 43.3242134 13.13619069 43.3242134 14.25512695 40.8137207 C14.66206787 39.86070068 15.06900879 38.90768066 15.48828125 37.92578125 C15.94485107 36.87124756 16.4014209 35.81671387 16.87182617 34.73022461 C17.34724854 33.60237549 17.8226709 32.47452637 18.3125 31.3125 C19.04400269 29.61202515 19.04400269 29.61202515 19.7902832 27.87719727 C21.20292073 24.58871999 22.60217679 21.29479487 24 18 C24.68355753 16.40827877 25.3682538 14.81704549 26.0546875 13.2265625 C27.37952008 10.15513697 28.69432455 7.07963111 30 4 C30.33 4 30.66 4 31 4 C31.69721387 8.92505729 32.39082642 13.85060439 33.08129883 18.77661133 C33.3160189 20.44764447 33.55167339 22.11854667 33.78833008 23.78930664 C35.07031309 32.84449744 36.32877112 41.87408937 37 51 C38.32 51 39.64 51 41 51 C42.71482613 49.17626326 42.71482613 49.17626326 44.13671875 46.6796875 C44.99692627 45.29644287 44.99692627 45.29644287 45.87451172 43.88525391 C46.47279785 42.89187012 47.07108398 41.89848633 47.6875 40.875 C48.93332384 38.85920816 50.17941792 36.84358332 51.42578125 34.828125 C52.03244629 33.83619141 52.63911133 32.84425781 53.26416016 31.82226562 C55.58128993 28.05489288 57.96912178 24.33607337 60.375 20.625 C61.08398438 19.52414063 61.79296875 18.42328125 62.5234375 17.2890625 C63.01070313 16.53367187 63.49796875 15.77828125 64 15 C65.03994283 18.1198285 64.98478866 19.47711883 64.57861328 22.66748047 C64.46164093 23.61211151 64.34466858 24.55674255 64.22415161 25.52999878 C64.0908847 26.54877106 63.9576178 27.56754333 63.8203125 28.6171875 C63.68809296 29.66649445 63.55587341 30.71580139 63.41964722 31.79690552 C63.13854165 34.01816154 62.85420314 36.23901045 62.56689453 38.45947266 C62.12775883 41.85367625 61.69773827 45.24893332 61.26953125 48.64453125 C60.99532426 50.80215109 60.72060161 52.95970546 60.4453125 55.1171875 C60.31609406 56.13191132 60.18687561 57.14663513 60.05374146 58.19210815 C59.93046478 59.14304352 59.80718811 60.09397888 59.68017578 61.07373047 C59.57279083 61.90629364 59.46540588 62.73885681 59.35476685 63.59664917 C58.98736442 66.08559912 58.51392061 68.53749372 58 71 C50.80363855 69.60715585 43.65391123 68.0485089 36.51025391 66.40917969 C7.83815962 59.92375065 -21.04952957 65.23961735 -49.0703125 72.30078125 C-52 73 -52 73 -54 73 C-55.3243552 70.3512896 -55.37466207 68.04001354 -55.6484375 65.0859375 C-55.76533936 63.86068359 -55.88224121 62.63542969 -56.00268555 61.37304688 C-56.09373062 60.39452759 -56.09373062 60.39452759 -56.18661499 59.39624023 C-57.27230493 47.74754173 -58.52611504 36.13699906 -60.08544922 24.54052734 C-60.68548799 19.98909232 -61.16115633 15.60446652 -61 11 C-58.21455746 14.35057181 -55.86648157 17.72122327 -53.6875 21.4921875 C-53.08679687 22.52730469 -52.48609375 23.56242187 -51.8671875 24.62890625 C-51.25101563 25.70011719 -50.63484375 26.77132812 -50 27.875 C-49.38382813 28.93847656 -48.76765625 30.00195312 -48.1328125 31.09765625 C-45.07031232 36.38802674 -42.0262988 41.6888456 -39 47 C-37.68 47 -36.36 47 -35 47 C-34.01 32.81 -33.02 18.62 -32 4 C-31.34 4 -30.68 4 -30 4 C-29.86464844 4.68320313 -29.72929688 5.36640625 -29.58984375 6.0703125 C-27.36492354 16.48880116 -24.1069286 26.55027145 -20.76123047 36.65576172 C-20.12240294 38.62305548 -19.54060864 40.60874312 -18.97265625 42.59765625 C-18.65167969 43.39042969 -18.33070312 44.18320313 -18 45 C-17.01 45.33 -16.02 45.66 -15 46 C-14.85304687 45.40316406 -14.70609375 44.80632812 -14.5546875 44.19140625 C-12.79524779 37.38621702 -10.57552335 30.81859849 -8.19946289 24.21142578 C-6.53376613 19.56454291 -5.02343556 14.90461567 -3.65625 10.16015625 C-2.60682759 6.7058075 -1.30816173 3.36384444 0 0 Z " fill="#F7F9F8" transform="translate(117,83)"/>
<path d="M0 0 C0.33 0 0.66 0 1 0 C0.70323534 10.81707181 -0.28777888 21.53361434 -1.61560059 32.26901245 C-1.7881601 33.66997237 -1.95655537 35.07145165 -2.12072754 36.47341919 C-2.35663131 38.47082647 -2.61159536 40.46595402 -2.8671875 42.4609375 C-3.01269043 43.62415527 -3.15819336 44.78737305 -3.30810547 45.98583984 C-4.04081432 49.17780296 -4.6102284 50.77033716 -7 53 C-9.48242188 53.69775391 -9.48242188 53.69775391 -12.46875 53.9765625 C-13.58121094 54.08895264 -14.69367188 54.20134277 -15.83984375 54.31713867 C-17.04769531 54.41873291 -18.25554687 54.52032715 -19.5 54.625 C-20.76972656 54.74270752 -22.03945312 54.86041504 -23.34765625 54.98168945 C-25.98100497 55.22145625 -28.61515343 55.45258879 -31.25 55.67529297 C-34.51549584 55.95804749 -37.77196467 56.28337382 -41.03125 56.62890625 C-55.86348439 58.08624596 -70.72791169 58.25932426 -85.62084961 58.35147095 C-87.98580738 58.36707248 -90.35073322 58.38879483 -92.71557617 58.4168396 C-96.07499905 58.45275896 -99.43337531 58.46076361 -102.79296875 58.4609375 C-103.80344772 58.47521286 -104.8139267 58.48948822 -105.85502625 58.50419617 C-112.06902095 58.4647515 -116.82802476 57.59571497 -122 54 C-124 51.75 -124 51.75 -125 50 C-120.71789243 46.01337954 -117.72414188 44.26460723 -111.87109375 43.05078125 C-111.20014175 42.90722702 -110.52918976 42.76367279 -109.83790588 42.61576843 C-107.70753122 42.16465116 -105.57299567 41.73863011 -103.4375 41.3125 C-102.03287541 41.01652495 -100.62857445 40.71900972 -99.22460938 40.41992188 C-85.95312451 37.62504692 -73.09809728 35.60732177 -59.5 35.625 C-58.19353516 35.62661133 -56.88707031 35.62822266 -55.54101562 35.62988281 C-39.41453454 35.83176071 -24.31864841 39.15982201 -9 44 C-8.96261719 43.25621094 -8.92523438 42.51242188 -8.88671875 41.74609375 C-8.40460405 33.73920837 -7.53705971 25.82745606 -6.5 17.875 C-6.36940186 16.86751709 -6.23880371 15.86003418 -6.10424805 14.82202148 C-5.04776623 6.89539698 -5.04776623 6.89539698 -4 3 C-3.01 3 -2.02 3 -1 3 C-0.67 2.01 -0.34 1.02 0 0 Z " fill="#13302D" transform="translate(184,110)"/>
<path d="M0 0 C0.72953384 -0.00570007 1.45906769 -0.01140015 2.21070862 -0.01727295 C3.7634231 -0.02674482 5.31615787 -0.03326557 6.86889648 -0.03710938 C9.21310382 -0.04670793 11.55639341 -0.07766253 13.90039062 -0.109375 C32.63528196 -0.24328683 32.63528196 -0.24328683 40.31640625 5.578125 C44.81892278 10.30576735 45.21723318 14.36287336 45.06640625 20.70703125 C44.43024654 27.0586884 41.5576773 31.13917839 36.81640625 35.203125 C32.36813039 38.203125 32.36813039 38.203125 29.81640625 38.203125 C33.29376985 43.50274027 36.80153173 48.780645 40.35107422 54.03222656 C41.51594643 55.75799192 42.67002538 57.49104158 43.8203125 59.2265625 C47.85814271 64.92817335 52.36073786 67.61825979 58.81640625 70.203125 C58.81640625 71.853125 58.81640625 73.503125 58.81640625 75.203125 C54.54514828 77.33875399 49.81843889 76.39260393 45.37890625 75.140625 C32.41002107 70.27729306 25.9247778 56.50120531 20.06640625 44.765625 C19.7621875 44.08628906 19.45796875 43.40695313 19.14453125 42.70703125 C17.47518253 40.49820722 17.47518253 40.49820722 11.81640625 40.203125 C11.81640625 49.113125 11.81640625 58.023125 11.81640625 67.203125 C15.28140625 67.698125 15.28140625 67.698125 18.81640625 68.203125 C19.81640625 69.203125 19.81640625 69.203125 19.81640625 74.203125 C10.90640625 74.203125 1.99640625 74.203125 -7.18359375 74.203125 C-7.18359375 72.553125 -7.18359375 70.903125 -7.18359375 69.203125 C-3.71859375 68.213125 -3.71859375 68.213125 -0.18359375 67.203125 C-0.18359375 47.403125 -0.18359375 27.603125 -0.18359375 7.203125 C-2.82359375 6.873125 -5.46359375 6.543125 -8.18359375 6.203125 C-8.22631475 4.53700595 -8.22423207 2.86929615 -8.18359375 1.203125 C-6.25038916 -0.73007959 -2.63687222 0.01584666 0 0 Z M11.81640625 6.203125 C11.81640625 15.443125 11.81640625 24.683125 11.81640625 34.203125 C21.28825633 34.34831587 21.28825633 34.34831587 28.81640625 30.203125 C31.94957143 26.83497243 33.07380433 24.21400441 33.31640625 19.703125 C33.10651609 15.25795125 31.78712864 12.58644773 28.81640625 9.203125 C23.61591615 6.28846588 23.61591615 6.28846588 11.81640625 6.203125 Z " fill="#FFFFFF" transform="translate(254.18359375,77.796875)"/>
<path d="M0 0 C1.65 0 3.3 0 5 0 C5 25.41 5 50.82 5 77 C7.64 77.33 10.28 77.66 13 78 C13 79.98 13 81.96 13 84 C3.76 84 -5.48 84 -15 84 C-15 82.02 -15 80.04 -15 78 C-10.545 77.505 -10.545 77.505 -6 77 C-6.33 68.09 -6.66 59.18 -7 50 C-8.65 51.65 -10.3 53.3 -12 55 C-17.19296661 58.52265157 -24.0318678 57.61716659 -30 57 C-36.6395751 55.02633121 -40.38046063 51.0383837 -43.84765625 45.1796875 C-47.73839244 37.82026109 -48.18516482 30.13122494 -46.3125 22.0234375 C-43.21404903 12.65062333 -38.68781053 7.43149452 -29.953125 2.9453125 C-29.30859375 2.63335937 -28.6640625 2.32140625 -28 2 C-27.34 1.67 -26.68 1.34 -26 1 C-12.50306313 0.29050332 -12.50306313 0.29050332 -6.25 2.1875 C-5.1775 2.455625 -4.105 2.72375 -3 3 C-1.27056525 1.68732044 -1.27056525 1.68732044 0 0 Z M-28 10 C-33.34410766 15.34410766 -35.06675337 19.95140396 -35.3125 27.375 C-35.16310714 34.70520966 -33.27961818 40.72038182 -28 46 C-23.95189916 48.36139215 -19.58704544 48.72106964 -15 48 C-11.03580504 46.42825864 -8.40149467 44.602242 -6 41 C-5.5017471 36.3696227 -5.58339193 31.71675847 -5.5625 27.0625 C-5.52962891 25.77408203 -5.49675781 24.48566406 -5.46289062 23.15820312 C-5.45580078 21.92134766 -5.44871094 20.68449219 -5.44140625 19.41015625 C-5.42795166 18.27715088 -5.41449707 17.14414551 -5.40063477 15.97680664 C-5.74907439 12.81716438 -5.74907439 12.81716438 -8.34350586 10.67749023 C-15.02265679 6.45982218 -21.11864078 5.8804419 -28 10 Z " fill="#FFFFFF" transform="translate(486,96)"/>
<path d="M0 0 C17.49 0 34.98 0 53 0 C53.99 5.61 54.98 11.22 56 17 C53.69 17.33 51.38 17.66 49 18 C48.32880451 16.5437455 47.66318193 15.08492133 47 13.625 C46.62875 12.81289062 46.2575 12.00078125 45.875 11.1640625 C45 9 45 9 45 7 C36.42 7 27.84 7 19 7 C19 15.58 19 24.16 19 33 C25.6 33 32.2 33 39 33 C39.33 30.03 39.66 27.06 40 24 C41.99954746 23.95745644 44.00041636 23.95919217 46 24 C47.71567792 25.71567792 47.13015825 27.97372735 47.1328125 30.3125 C47.13474609 31.92511719 47.13474609 31.92511719 47.13671875 33.5703125 C47.13285156 34.70210937 47.12898437 35.83390625 47.125 37 C47.13080078 38.69769531 47.13080078 38.69769531 47.13671875 40.4296875 C47.13542969 41.50476563 47.13414062 42.57984375 47.1328125 43.6875 C47.13168457 44.68136719 47.13055664 45.67523438 47.12939453 46.69921875 C47 49 47 49 46 50 C44.00041636 50.04080783 41.99954746 50.04254356 40 50 C39.505 45.545 39.505 45.545 39 41 C32.4 40.67 25.8 40.34 19 40 C19.33 48.91 19.66 57.82 20 67 C23.3 67.33 26.6 67.66 30 68 C30 69.98 30 71.96 30 74 C20.1 74 10.2 74 0 74 C0 72.35 0 70.7 0 69 C2.97 68.01 2.97 68.01 6 67 C6.92903313 59.95027802 7.13195985 53.070508 7.09765625 45.96484375 C7.0962413 44.84557999 7.09482635 43.72631622 7.09336853 42.57313538 C7.08780879 39.02789542 7.07526385 35.48272059 7.0625 31.9375 C7.05747979 29.52148529 7.0529178 27.10546959 7.04882812 24.68945312 C7.03785257 18.79294685 7.02115496 12.89647808 7 7 C4.69 6.67 2.38 6.34 0 6 C0 4.02 0 2.04 0 0 Z " fill="#FFFFFF" transform="translate(530,78)"/>
<path d="M0 0 C0.33 1.65 0.66 3.3 1 5 C1.47050781 4.65066406 1.94101562 4.30132812 2.42578125 3.94140625 C3.04839844 3.48636719 3.67101562 3.03132813 4.3125 2.5625 C4.92738281 2.11003906 5.54226563 1.65757813 6.17578125 1.19140625 C11.16715943 -2.06848742 17.27988178 -1.53863182 23 -1 C26.4375 0.625 26.4375 0.625 29 3 C30.36125 4.2375 30.36125 4.2375 31.75 5.5 C37.65035428 13.0616647 36.25783766 25.7170389 36.125 34.75 C36.11597656 35.9359375 36.10695313 37.121875 36.09765625 38.34375 C36.07438497 41.22938907 36.04169684 44.11457855 36 47 C38.64 47.66 41.28 48.32 44 49 C44 50.65 44 52.3 44 54 C35.09 54 26.18 54 17 54 C17 52.35 17 50.7 17 49 C19.64 48.34 22.28 47.68 25 47 C24.93080489 42.83682442 24.8426887 38.67459374 24.73754883 34.51220703 C24.70443709 33.0982551 24.67636284 31.68417536 24.65356445 30.27001953 C24.61976225 28.22894177 24.56744036 26.18902072 24.51171875 24.1484375 C24.48553467 22.92302246 24.45935059 21.69760742 24.43237305 20.43505859 C23.83756006 15.70946927 22.41283324 12.28817148 18.875 9.0625 C14.7895367 7.55265487 11.12989507 7.58946112 7 9 C2.09145166 12.22029159 2.09145166 12.22029159 0.22705078 17.59692383 C0.1864677 18.96639929 0.17741334 20.33707152 0.1953125 21.70703125 C0.17475296 22.79512337 0.17475296 22.79512337 0.15377808 23.90519714 C0.11656796 26.20826753 0.12018586 28.50917245 0.125 30.8125 C0.1068665 32.37959086 0.08606173 33.94665323 0.0625 35.51367188 C0.01073498 39.34280927 -0.00443702 43.17053198 0 47 C2.64 47.66 5.28 48.32 8 49 C8 50.65 8 52.3 8 54 C-0.91 54 -9.82 54 -19 54 C-19 52.35 -19 50.7 -19 49 C-16.36 48.34 -13.72 47.68 -11 47 C-11.33 34.79 -11.66 22.58 -12 10 C-14.31 9.67 -16.62 9.34 -19 9 C-20 8 -20 8 -20.0625 5.4375 C-20.041875 4.633125 -20.02125 3.82875 -20 3 C-17.60743751 2.29878357 -15.21209511 1.61385099 -12.8125 0.9375 C-12.13896484 0.73833984 -11.46542969 0.53917969 -10.77148438 0.33398438 C-6.82583684 -0.76309811 -3.94448706 -1.21781251 0 0 Z " fill="#FFFFFF" transform="translate(771,98)"/>
<path d="M0 0 C0.33 1.98 0.66 3.96 1 6 C1.9075 5.21625 2.815 4.4325 3.75 3.625 C8.99521084 -0.90495481 13.16088337 -1.4417165 20.01953125 -1.31640625 C25.44256462 -0.7406976 28.4565536 1.4565536 32.3125 5.3125 C35.68135062 10.67770655 36.25901829 16.23723477 36.4140625 22.46484375 C36.43342865 23.14301651 36.4527948 23.82118927 36.4727478 24.51991272 C36.53191999 26.65898566 36.57867519 28.79811428 36.625 30.9375 C36.66323745 32.39911036 36.70229242 33.86069957 36.7421875 35.32226562 C36.83756819 38.88131543 36.92182567 42.44052587 37 46 C39.31 46.99 41.62 47.98 44 49 C44 50.65 44 52.3 44 54 C35.42 54 26.84 54 18 54 C18 52.35 18 50.7 18 49 C19.98 48.34 21.96 47.68 24 47 C25.55600435 35.93369703 27.74375514 20.29808483 21.375 10.5 C18.01295748 8.37660473 14.91436479 7.68204618 11 8 C7.10071804 9.34764657 3.9195371 11.0804629 1 14 C0.82511746 16.43744897 0.76822595 18.7593608 0.8046875 21.1953125 C0.80893234 22.25647781 0.80893234 22.25647781 0.81326294 23.33908081 C0.82446863 25.6012251 0.84957321 27.86297515 0.875 30.125 C0.88502933 31.65754637 0.89415526 33.19009894 0.90234375 34.72265625 C0.92440914 38.48192301 0.95894104 42.24089464 1 46 C3.31 46.99 5.62 47.98 8 49 C8 50.65 8 52.3 8 54 C-0.91 54 -9.82 54 -19 54 C-19 52.35 -19 50.7 -19 49 C-16.36 48.34 -13.72 47.68 -11 47 C-11 34.79 -11 22.58 -11 10 C-13.64 9.67 -16.28 9.34 -19 9 C-19 7.02 -19 5.04 -19 3 C-16.77518771 2.29853686 -14.54492632 1.61434046 -12.3125 0.9375 C-11.07113281 0.55464844 -9.82976563 0.17179687 -8.55078125 -0.22265625 C-5.1468214 -0.96785758 -3.28440924 -0.99851065 0 0 Z " fill="#FFFFFF" transform="translate(642,98)"/>
<path d="M0 0 C4.71577158 3.41140923 6.64540649 7.59641568 7.65234375 13.1953125 C7.86195496 17.03327945 7.79600384 20.85373482 7.71484375 24.6953125 C7.60619159 30.98104107 7.52910897 36.99575311 8.65234375 43.1953125 C10.96234375 43.8553125 13.27234375 44.5153125 15.65234375 45.1953125 C15.65234375 46.8453125 15.65234375 48.4953125 15.65234375 50.1953125 C10.35483354 52.8440676 6.59515235 53.97469723 0.65234375 53.1953125 C-1.84765625 50.6953125 -1.84765625 50.6953125 -3.34765625 48.1953125 C-4.00507812 48.73671875 -4.00507812 48.73671875 -4.67578125 49.2890625 C-9.84268424 53.06972322 -14.0627536 53.96566217 -20.4375 53.68359375 C-26.06874285 52.73875434 -29.72249356 50.1251932 -33.34765625 45.8203125 C-34.99283658 41.50171413 -34.92903415 37.9394462 -33.47265625 33.5703125 C-26.78948354 26.10088418 -14.72432212 23.76951399 -5.34765625 21.1953125 C-4.68765625 21.1953125 -4.02765625 21.1953125 -3.34765625 21.1953125 C-4.03282797 13.74404708 -4.03282797 13.74404708 -7.78515625 7.5703125 C-12.14225202 5.23235867 -15.456848 5.1030331 -20.34765625 5.1953125 C-21.00765625 8.8253125 -21.66765625 12.4553125 -22.34765625 16.1953125 C-29.58575149 16.55721726 -29.58575149 16.55721726 -32.84765625 15.0078125 C-34.34765625 13.1953125 -34.34765625 13.1953125 -35.03515625 10.9453125 C-33.90410572 6.42111038 -30.99743748 3.95554132 -27.34765625 1.1953125 C-18.78690862 -3.76701918 -8.77743977 -5.13363553 0 0 Z M-13.41015625 30.0078125 C-14.45300781 30.34425781 -15.49585938 30.68070313 -16.5703125 31.02734375 C-19.22421354 32.14340059 -20.66337778 32.88744304 -22.34765625 35.1953125 C-22.34765625 38.97269544 -21.74924578 40.70587526 -19.34765625 43.6328125 C-15.69287959 45.53634201 -13.53524886 45.38943022 -9.53125 44.9453125 C-6.55017981 43.92140288 -5.23270448 42.72000631 -3.34765625 40.1953125 C-2.8657035 37.15091115 -2.8657035 37.15091115 -3.09765625 33.9453125 C-3.15179687 32.32882813 -3.15179687 32.32882813 -3.20703125 30.6796875 C-3.2534375 29.85984375 -3.29984375 29.04 -3.34765625 28.1953125 C-7.26410406 28.1953125 -9.73129122 28.79064154 -13.41015625 30.0078125 Z " fill="#FFFFFF" transform="translate(730.34765625,99.8046875)"/>
<path d="M0 0 C4.94707686 2.18613682 8.07237463 5.54127975 10.48828125 10.34375 C12.61458475 15.89885705 12.48828125 20.18607398 12.48828125 26.34375 C0.60828125 26.34375 -11.27171875 26.34375 -23.51171875 26.34375 C-20.81813874 37.23644564 -20.81813874 37.23644564 -13.26171875 44.21875 C-6.6844984 46.1919161 -0.96160016 45.92370257 5.48828125 43.34375 C6.98572013 41.35807266 6.98572013 41.35807266 7.48828125 39.34375 C9.13828125 40.00375 10.78828125 40.66375 12.48828125 41.34375 C10.48589421 47.7149815 6.23558182 51.23710104 0.48828125 54.34375 C-4.91478383 57.04528254 -13.90131741 56.12217302 -19.55078125 54.4375 C-27.53817961 50.67304639 -31.47879875 45.68428 -34.51171875 37.34375 C-36.74233549 29.43519975 -36.09339415 20.19511586 -32.21875 12.9140625 C-24.69107103 1.10973301 -13.87431289 -3.62501488 0 0 Z M-19.51171875 9.34375 C-21.45236499 12.7368675 -23.51171875 16.36767252 -23.51171875 20.34375 C-15.26171875 20.34375 -7.01171875 20.34375 1.48828125 20.34375 C1.49672065 12.87518918 1.49672065 12.87518918 -2.51171875 7.34375 C-8.50266056 3.34978879 -14.42458447 4.60346578 -19.51171875 9.34375 Z " fill="#FFFFFF" transform="translate(350.51171875,97.65625)"/>
<path d="M0 0 C4.60951011 2.76181618 7.44441901 6.21357225 9.8125 11.0625 C10.5 14.375 10.5 14.375 10.5 25.375 C-1.05 25.375 -12.6 25.375 -24.5 25.375 C-22.58353592 36.12855197 -22.58353592 36.12855197 -16.21875 42.38671875 C-11.87106865 44.88663553 -7.36983553 44.98271658 -2.5 44.375 C0.11449304 43.29964322 2.12045487 41.96136342 4.5 40.375 C5.82646156 39.6947633 7.15608877 39.02007739 8.5 38.375 C9.16 39.035 9.82 39.695 10.5 40.375 C10.32020536 43.43650319 9.83510182 44.98430886 7.828125 47.32421875 C7.14234375 47.89785156 6.4565625 48.47148437 5.75 49.0625 C4.73679687 49.93455078 4.73679687 49.93455078 3.703125 50.82421875 C-3.02401317 55.55945608 -10.61922428 55.05336645 -18.5 54.375 C-25.35720922 52.45581134 -30.13580924 47.8533617 -33.75 41.8125 C-37.9997555 33.46476599 -37.79985057 23.26919704 -34.9375 14.4375 C-31.98045789 7.38210127 -26.86778183 2.18133775 -19.8671875 -0.96484375 C-13.42415379 -2.76166338 -6.1503139 -2.77230058 0 0 Z M-21.5 9.375 C-23.8177129 13.16059774 -24.5 14.8891985 -24.5 19.375 C-16.25 19.375 -8 19.375 0.5 19.375 C-0.04477056 11.18208725 -0.04477056 11.18208725 -4.625 5.625 C-11.76916122 2.51884295 -16.28797351 3.79934375 -21.5 9.375 Z " fill="#FFFFFF" transform="translate(911.5,98.625)"/>
<path d="M0 0 C2.378686 3.68381158 2.23576224 7.19995144 2.13525391 11.43066406 C2.12579239 12.17251953 2.11633087 12.914375 2.10658264 13.67871094 C2.07297272 16.12460338 2.02483953 18.56998176 1.9765625 21.015625 C1.95038835 22.71383328 1.9251219 24.41205577 1.90072632 26.11029053 C1.8341441 30.57550064 1.75523646 35.0404111 1.67376709 39.50537109 C1.59277988 44.06335975 1.52344157 48.62152394 1.453125 53.1796875 C1.31348873 62.12000207 1.16083179 71.06004337 1 80 C5.455 80.99 5.455 80.99 10 82 C9.67 83.65 9.34 85.3 9 87 C0.09 87 -8.82 87 -18 87 C-18 85.35 -18 83.7 -18 82 C-12.25 80 -12.25 80 -10 80 C-10 57.23 -10 34.46 -10 11 C-12.97 10.67 -15.94 10.34 -19 10 C-19.33 8.35 -19.66 6.7 -20 5 C-6.08928571 -0.36904762 -6.08928571 -0.36904762 0 0 Z " fill="#FFFFFF" transform="translate(388,65)"/>
<path d="M0 0 C1.01018188 -0.00966797 1.01018188 -0.00966797 2.04077148 -0.01953125 C7.48232247 0.12039242 11.68500561 1.50383875 15.625 5.3125 C17.11552492 8.21074289 17.09934293 10.28604504 16.75 13.5 C14.75 15.5 14.75 15.5 12.125 16.0625 C6.67890968 15.15481828 3.54557622 11.29557622 -0.25 7.5 C-5.52144804 7.804122 -8.54480457 8.69188248 -12.25 12.5 C-16.03256658 18.84930818 -17.42644116 25.46552384 -15.71875 32.7734375 C-14.04585713 38.24670655 -12.16566873 42.75059876 -7.0625 45.8125 C-0.17096575 47.49709726 5.54503169 46.91906417 11.75 43.5 C12.41 42.51 13.07 41.52 13.75 40.5 C15.07 40.83 16.39 41.16 17.75 41.5 C18.40234375 43.28125 18.40234375 43.28125 18.75 45.5 C16.34703629 50.0847341 11.97376286 53.76266227 7.27734375 55.8359375 C-0.29471808 57.82550552 -8.62432353 57.7080364 -15.8125 54.5 C-22.66571641 50.44726737 -26.60968282 44.42407325 -28.77734375 36.84375 C-30.64112679 27.60185063 -28.8736961 19.15181249 -23.77734375 11.203125 C-17.40783132 3.19229613 -10.03986724 0.0919507 0 0 Z " fill="#FFFFFF" transform="translate(851.25,96.5)"/>
<path d="M0 0 C0.67885254 0.15017578 1.35770508 0.30035156 2.05712891 0.45507812 C4.27149921 0.95356802 6.48020097 1.47111172 8.6875 2 C9.38407715 2.1659668 10.0806543 2.33193359 10.79833984 2.50292969 C15.75876467 3.75876467 15.75876467 3.75876467 18 6 C7.6600636 7.38523024 -2.64343165 8.49900578 -13.0625 9.125 C-14.09845306 9.18753967 -14.09845306 9.18753967 -15.15533447 9.25134277 C-29.22168278 10.0721403 -43.28753932 10.21740541 -57.375 10.25 C-58.42325958 10.25517639 -59.47151917 10.26035278 -60.55154419 10.26568604 C-63.542315 10.27737068 -66.53266368 10.27425335 -69.5234375 10.265625 C-70.4229866 10.26958282 -71.32253571 10.27354065 -72.24934387 10.27761841 C-73.08148911 10.27140472 -73.91363434 10.26519104 -74.77099609 10.25878906 C-75.49451263 10.25719788 -76.21802917 10.25560669 -76.96347046 10.25396729 C-79.31516683 9.96069683 -80.95028029 9.16182618 -83 8 C-80.1791689 6.11944593 -78.66215225 5.53192241 -75.44921875 4.81640625 C-74.53454834 4.61233154 -73.61987793 4.40825684 -72.67749023 4.19799805 C-71.69079346 3.98828369 -70.70409668 3.77856934 -69.6875 3.5625 C-68.14848022 3.23536011 -68.14848022 3.23536011 -66.57836914 2.90161133 C-44.79725216 -1.60407887 -22.01615629 -4.87442575 0 0 Z " fill="#F2F4F3" transform="translate(151,153)"/>
<path d="M0 0 C0 15.51 0 31.02 0 47 C2.97 47.66 5.94 48.32 9 49 C8.67 50.65 8.34 52.3 8 54 C-1.24 54 -10.48 54 -20 54 C-20 52.35 -20 50.7 -20 49 C-17.03 48.34 -14.06 47.68 -11 47 C-11.33 34.79 -11.66 22.58 -12 10 C-14.64 9.67 -17.28 9.34 -20 9 C-20 7.02 -20 5.04 -20 3 C-17.60743751 2.29878357 -15.21209511 1.61385099 -12.8125 0.9375 C-12.13896484 0.73833984 -11.46542969 0.53917969 -10.77148438 0.33398438 C-6.47936711 -0.8594336 -4.53827997 -0.90765599 0 0 Z " fill="#FFFFFF" transform="translate(609,98)"/>
<path d="M0 0 C0 15.51 0 31.02 0 47 C2.97 47.66 5.94 48.32 9 49 C8.67 50.65 8.34 52.3 8 54 C-1.24 54 -10.48 54 -20 54 C-20 52.35 -20 50.7 -20 49 C-17.03 48.34 -14.06 47.68 -11 47 C-11.33 34.79 -11.66 22.58 -12 10 C-14.64 9.67 -17.28 9.34 -20 9 C-20 7.02 -20 5.04 -20 3 C-17.60743751 2.29878357 -15.21209511 1.61385099 -12.8125 0.9375 C-12.13896484 0.73833984 -11.46542969 0.53917969 -10.77148438 0.33398438 C-6.47936711 -0.8594336 -4.53827997 -0.90765599 0 0 Z " fill="#FFFFFF" transform="translate(423,98)"/>
<path d="M0 0 C1.9375 1.0625 1.9375 1.0625 3 3 C3.46054244 5.75749789 3.51711021 8.24782454 3 11 C1.00278364 13.29310026 -0.60247002 13.85729693 -3.4375 14.875 C-6.8413824 15.04104304 -8.3146939 14.03212354 -11 12 C-13 9 -13 9 -12.9375 5.5 C-12 2 -12 2 -9.875 0 C-6.14261699 -1.29822018 -3.80261145 -0.98586223 0 0 Z " fill="#FFFFFF" transform="translate(608,69)"/>
<path d="M0 0 C1.9375 1.0625 1.9375 1.0625 3 3 C3.46054244 5.75749789 3.51711021 8.24782454 3 11 C1.00278364 13.29310026 -0.60247002 13.85729693 -3.4375 14.875 C-6.8413824 15.04104304 -8.3146939 14.03212354 -11 12 C-13 9 -13 9 -12.9375 5.5 C-12 2 -12 2 -9.875 0 C-6.14261699 -1.29822018 -3.80261145 -0.98586223 0 0 Z " fill="#FFFFFF" transform="translate(422,69)"/>
<path d="M0 0 C0.99 0 1.98 0 3 0 C2.75 2.375 2.75 2.375 2 5 C0.0625 6.1875 0.0625 6.1875 -2 7 C-2.66 7.66 -3.32 8.32 -4 9 C-3.47557578 5.2241456 -2.67345333 2.77627845 0 0 Z " fill="#0C2A27" transform="translate(112,88)"/>
<path d="M0 0 C1.15941038 3.47823115 0.70820884 5.45895578 0 9 C-0.66 8.34 -1.32 7.68 -2 7 C-2.99 7.495 -2.99 7.495 -4 8 C-2.87548273 5.0280615 -1.77706209 2.66559313 0 0 Z " fill="#D6DDDD" transform="translate(181,98)"/>
</svg>
